<svg version="1.1" id="Layer_1" xmlns="http://www.w3.org/2000/svg" xmlns:xlink="http://www.w3.org/1999/xlink" x="0px" y="0px"
	 width="100%" viewBox="0 0 702 252" enable-background="new 0 0 702 252" xml:space="preserve">
<path fill="#FFFFFF" opacity="1.000000" stroke="none" 
	d="
M489.000000,253.000000 
	C326.000000,253.000000 163.500000,253.000000 1.000000,253.000000 
	C1.000000,169.000000 1.000000,85.000000 1.000000,1.000000 
	C235.000000,1.000000 469.000000,1.000000 703.000000,1.000000 
	C703.000000,85.000000 703.000000,169.000000 703.000000,253.000000 
	C631.833313,253.000000 560.666687,253.000000 489.000000,253.000000 
M544.494873,159.003448 
	C549.247742,159.003448 554.000610,159.003448 558.706177,159.003448 
	C558.706177,152.004898 558.706177,145.731232 558.706177,139.000626 
	C548.954346,139.000626 539.405762,139.000626 529.857239,139.000626 
	C529.582458,138.571793 529.307678,138.142944 529.032898,137.714111 
	C530.460388,136.657166 532.014771,135.733902 533.293457,134.520203 
	C538.969849,129.132370 544.985718,124.026268 550.111206,118.148842 
	C563.156921,103.189209 561.219055,80.862991 546.231384,68.665276 
	C535.364258,59.821075 515.946045,58.227997 503.747620,65.179955 
	C492.912018,71.355232 484.988251,86.591972 486.795959,97.856644 
	C495.361664,97.856644 503.933685,97.856644 512.708557,97.856644 
	C512.708557,96.247437 512.636475,94.938667 512.720520,93.639992 
	C513.194092,86.319725 517.655945,82.215233 524.272095,82.969261 
	C530.300598,83.656326 534.511047,89.096100 533.072327,95.646652 
	C532.217224,99.539658 530.322815,103.561615 527.833313,106.676636 
	C517.028259,120.196686 502.689392,129.282074 487.739441,137.519211 
	C486.427063,138.242294 484.500000,139.490021 484.442413,140.577957 
	C484.121094,146.645859 484.287994,152.739594 484.287994,159.003448 
	C504.515717,159.003448 524.005981,159.003448 544.494873,159.003448 
M588.500488,139.843109 
	C597.108154,139.843109 605.715759,139.843109 614.711731,139.843109 
	C614.711731,146.547165 614.711731,152.651779 614.711731,158.838699 
	C622.735901,158.838699 630.357117,158.838699 638.606079,158.838699 
	C638.606079,152.489990 638.606079,146.284164 638.606079,139.764008 
	C641.842468,139.764008 644.452332,139.764008 647.362061,139.764008 
	C647.362061,133.371567 647.362061,127.323235 647.362061,120.869713 
	C644.294678,120.869713 641.522705,120.869713 638.212219,120.869713 
	C638.212219,101.434326 638.212219,82.398560 638.212219,63.157066 
	C628.188354,63.157066 618.706482,63.306786 609.234253,63.072021 
	C606.117798,62.994781 604.506653,64.133377 603.001221,66.695152 
	C593.240845,83.303490 583.773682,100.111420 573.284485,116.252182 
	C568.331360,123.874054 569.054077,131.450150 569.281067,139.843094 
	C575.584839,139.843094 581.542786,139.843094 588.500488,139.843109 
M444.871155,158.353622 
	C455.934418,137.040848 466.997650,115.728073 478.278229,93.996613 
	C471.103790,93.996613 464.611542,94.180244 458.137726,93.914864 
	C455.148407,93.792320 453.790649,94.957764 452.553223,97.483192 
	C448.058624,106.656143 443.332611,115.715714 438.396362,125.401833 
	C433.474609,115.636627 428.914948,106.426422 424.154419,97.321228 
	C423.443298,95.961205 421.822083,94.192009 420.565918,94.146149 
	C412.629364,93.856384 404.677002,93.999191 396.195526,93.999191 
	C397.154297,95.909454 397.842834,97.373619 398.609863,98.795456 
	C407.205994,114.730537 415.889069,130.619797 424.307312,146.648193 
	C425.180389,148.310547 425.231567,151.141068 424.419525,152.831879 
	C419.316254,163.457809 413.852570,173.910461 408.533295,184.433167 
	C407.987122,185.513550 407.607727,186.678253 407.002136,188.170609 
	C413.539673,188.170609 419.535736,187.980698 425.511047,188.250153 
	C428.532257,188.386383 429.886261,187.139481 431.146759,184.626083 
	C435.464294,176.017014 440.019897,167.527328 444.871155,158.353622 
M127.826195,161.085068 
	C132.991013,161.077759 138.170959,161.322968 143.317734,161.014435 
	C157.179031,160.183487 168.006058,152.209534 168.671570,140.655930 
	C169.557755,125.271553 168.890381,109.797684 168.890381,94.287964 
	C161.391281,94.287964 154.147568,94.287964 146.674988,94.287964 
	C146.674988,95.894470 146.675171,97.212563 146.674973,98.530663 
	C146.673370,109.363289 146.773392,120.197205 146.634918,131.028091 
	C146.539856,138.465225 143.419968,141.863007 136.802261,142.317001 
	C128.327225,142.898453 124.388794,139.348938 124.317207,130.728409 
	C124.216644,118.619072 124.291794,106.508270 124.291794,94.282745 
	C116.570015,94.282745 109.333214,94.282745 101.831444,94.282745 
	C101.831444,108.039474 101.799431,121.514336 101.860374,134.988770 
	C101.871605,137.471329 101.949089,140.026733 102.524948,142.421326 
	C105.592278,155.175980 115.425377,159.217575 127.826195,161.085068 
M308.229401,159.983002 
	C318.827759,157.388596 327.031097,151.552826 327.715393,140.161560 
	C328.628632,124.958786 327.941071,109.659859 327.941071,94.260529 
	C320.442078,94.260529 313.207184,94.260529 305.653076,94.260529 
	C305.653076,106.808975 305.788605,119.100311 305.603241,131.386810 
	C305.488525,138.987961 301.787842,142.419022 294.462708,142.426086 
	C287.119690,142.433167 283.471222,138.986145 283.326965,131.413437 
	C283.158997,122.595055 283.283081,113.771095 283.281036,104.949562 
	C283.280212,101.369743 283.280884,97.789932 283.280884,94.368210 
	C275.364014,94.368210 268.145660,94.368210 260.927490,94.368210 
	C260.927490,109.215202 260.753937,123.695961 260.990509,138.169998 
	C261.140045,147.319000 265.756866,153.975311 274.098297,157.705460 
	C284.856110,162.516190 296.110107,161.847610 308.229401,159.983002 
M237.526947,93.995720 
	C236.360718,93.995720 235.160858,94.175613 234.034012,93.964958 
	C228.810410,92.988403 225.287720,95.093636 222.428238,99.433655 
	C220.106201,102.957970 217.128616,106.050369 214.182327,109.651405 
	C210.371017,104.927155 206.973343,100.638359 203.472855,96.435196 
	C202.676193,95.478630 201.541458,94.154869 200.532166,94.127884 
	C193.164520,93.930893 185.789185,94.021797 177.636230,94.021797 
	C186.227783,104.767197 194.188416,114.723495 202.210754,124.756981 
	C193.145645,136.147949 184.300735,147.262253 174.956696,159.003723 
	C183.227493,159.003723 190.533386,159.144501 197.825226,158.887192 
	C199.316956,158.834534 201.118439,157.597336 202.155991,156.377762 
	C206.434998,151.348007 210.474930,146.114868 214.900864,140.583923 
	C219.320251,146.113388 223.406479,151.318283 227.618057,156.419662 
	C228.488861,157.474457 229.804413,158.841949 230.951904,158.877609 
	C238.177628,159.102127 245.413803,158.991333 253.501724,158.991333 
	C244.262421,147.347397 235.619110,136.454590 226.920212,125.491722 
	C235.250778,115.107460 243.433716,104.907211 252.187256,93.995720 
	C247.030807,93.995720 242.768234,93.995720 237.526947,93.995720 
M66.323212,130.499893 
	C66.323212,139.932419 66.323212,149.364944 66.323212,158.744247 
	C74.229309,158.744247 81.481750,158.744247 88.709259,158.744247 
	C88.709259,124.611465 88.709259,90.758911 88.709259,56.874882 
	C81.137283,56.874882 73.878487,56.874882 66.323280,56.874882 
	C66.323280,81.265556 66.323280,105.382713 66.323212,130.499893 
M363.617004,123.500137 
	C363.617004,113.729126 363.617004,103.958122 363.617004,94.244141 
	C355.714569,94.244141 348.462799,94.244141 341.249207,94.244141 
	C341.249207,115.938881 341.249207,137.333984 341.249207,158.698685 
	C348.783630,158.698685 356.017853,158.698685 363.159973,158.698685 
	C363.360443,158.096176 363.550323,157.790527 363.551239,157.484344 
	C363.584076,146.489624 363.599243,135.494888 363.617004,123.500137 
M370.706146,114.655838 
	C376.013794,120.192589 381.690491,121.315666 387.162506,117.911545 
	C392.205627,114.774246 394.449921,108.383369 392.534576,102.614029 
	C390.582825,96.735001 385.097534,93.247215 378.957947,94.007271 
	C370.332733,95.075027 364.788971,105.899872 370.706146,114.655838 
z"/>
<path fill="#2A2D3D" opacity="1.000000" stroke="none" 
	d="
M543.995544,159.003448 
	C524.005981,159.003448 504.515717,159.003448 484.287994,159.003448 
	C484.287994,152.739594 484.121094,146.645859 484.442413,140.577957 
	C484.500000,139.490021 486.427063,138.242294 487.739441,137.519211 
	C502.689392,129.282074 517.028259,120.196686 527.833313,106.676636 
	C530.322815,103.561615 532.217224,99.539658 533.072327,95.646652 
	C534.511047,89.096100 530.300598,83.656326 524.272095,82.969261 
	C517.655945,82.215233 513.194092,86.319725 512.720520,93.639992 
	C512.636475,94.938667 512.708557,96.247437 512.708557,97.856644 
	C503.933685,97.856644 495.361664,97.856644 486.795959,97.856644 
	C484.988251,86.591972 492.912018,71.355232 503.747620,65.179955 
	C515.946045,58.227997 535.364258,59.821075 546.231384,68.665276 
	C561.219055,80.862991 563.156921,103.189209 550.111206,118.148842 
	C544.985718,124.026268 538.969849,129.132370 533.293457,134.520203 
	C532.014771,135.733902 530.460388,136.657166 529.032898,137.714111 
	C529.307678,138.142944 529.582458,138.571793 529.857239,139.000626 
	C539.405762,139.000626 548.954346,139.000626 558.706177,139.000626 
	C558.706177,145.731232 558.706177,152.004898 558.706177,159.003448 
	C554.000610,159.003448 549.247742,159.003448 543.995544,159.003448 
z"/>
<path fill="#2A2D3D" opacity="1.000000" stroke="none" 
	d="
M588.000610,139.843109 
	C581.542786,139.843094 575.584839,139.843094 569.281067,139.843094 
	C569.054077,131.450150 568.331360,123.874054 573.284485,116.252182 
	C583.773682,100.111420 593.240845,83.303490 603.001221,66.695152 
	C604.506653,64.133377 606.117798,62.994781 609.234253,63.072021 
	C618.706482,63.306786 628.188354,63.157066 638.212219,63.157066 
	C638.212219,82.398560 638.212219,101.434326 638.212219,120.869713 
	C641.522705,120.869713 644.294678,120.869713 647.362061,120.869713 
	C647.362061,127.323235 647.362061,133.371567 647.362061,139.764008 
	C644.452332,139.764008 641.842468,139.764008 638.606079,139.764008 
	C638.606079,146.284164 638.606079,152.489990 638.606079,158.838699 
	C630.357117,158.838699 622.735901,158.838699 614.711731,158.838699 
	C614.711731,152.651779 614.711731,146.547165 614.711731,139.843109 
	C605.715759,139.843109 597.108154,139.843109 588.000610,139.843109 
M599.165344,110.642586 
	C597.338562,113.900986 595.511780,117.159386 593.543640,120.669800 
	C600.936218,120.669800 607.640625,120.669800 614.492065,120.669800 
	C614.492065,108.745605 614.492065,97.171089 614.492065,84.104591 
	C609.086548,93.507095 604.335144,101.771812 599.165344,110.642586 
z"/>
<path fill="#2A2D3D" opacity="1.000000" stroke="none" 
	d="
M444.677948,158.672882 
	C440.019897,167.527328 435.464294,176.017014 431.146759,184.626083 
	C429.886261,187.139481 428.532257,188.386383 425.511047,188.250153 
	C419.535736,187.980698 413.539673,188.170609 407.002136,188.170609 
	C407.607727,186.678253 407.987122,185.513550 408.533295,184.433167 
	C413.852570,173.910461 419.316254,163.457809 424.419525,152.831879 
	C425.231567,151.141068 425.180389,148.310547 424.307312,146.648193 
	C415.889069,130.619797 407.205994,114.730537 398.609863,98.795456 
	C397.842834,97.373619 397.154297,95.909454 396.195526,93.999191 
	C404.677002,93.999191 412.629364,93.856384 420.565918,94.146149 
	C421.822083,94.192009 423.443298,95.961205 424.154419,97.321228 
	C428.914948,106.426422 433.474609,115.636627 438.396362,125.401833 
	C443.332611,115.715714 448.058624,106.656143 452.553223,97.483192 
	C453.790649,94.957764 455.148407,93.792320 458.137726,93.914864 
	C464.611542,94.180244 471.103790,93.996613 478.278229,93.996613 
	C466.997650,115.728073 455.934418,137.040848 444.677948,158.672882 
z"/>
<path fill="#292C3C" opacity="1.000000" stroke="none" 
	d="
M127.368591,161.054718 
	C115.425377,159.217575 105.592278,155.175980 102.524948,142.421326 
	C101.949089,140.026733 101.871605,137.471329 101.860374,134.988770 
	C101.799431,121.514336 101.831444,108.039474 101.831444,94.282745 
	C109.333214,94.282745 116.570015,94.282745 124.291794,94.282745 
	C124.291794,106.508270 124.216644,118.619072 124.317207,130.728409 
	C124.388794,139.348938 128.327225,142.898453 136.802261,142.317001 
	C143.419968,141.863007 146.539856,138.465225 146.634918,131.028091 
	C146.773392,120.197205 146.673370,109.363289 146.674973,98.530663 
	C146.675171,97.212563 146.674988,95.894470 146.674988,94.287964 
	C154.147568,94.287964 161.391281,94.287964 168.890381,94.287964 
	C168.890381,109.797684 169.557755,125.271553 168.671570,140.655930 
	C168.006058,152.209534 157.179031,160.183487 143.317734,161.014435 
	C138.170959,161.322968 132.991013,161.077759 127.368591,161.054718 
z"/>
<path fill="#292C3C" opacity="1.000000" stroke="none" 
	d="
M307.811920,160.054260 
	C296.110107,161.847610 284.856110,162.516190 274.098297,157.705460 
	C265.756866,153.975311 261.140045,147.319000 260.990509,138.169998 
	C260.753937,123.695961 260.927490,109.215202 260.927490,94.368210 
	C268.145660,94.368210 275.364014,94.368210 283.280884,94.368210 
	C283.280884,97.789932 283.280212,101.369743 283.281036,104.949562 
	C283.283081,113.771095 283.158997,122.595055 283.326965,131.413437 
	C283.471222,138.986145 287.119690,142.433167 294.462708,142.426086 
	C301.787842,142.419022 305.488525,138.987961 305.603241,131.386810 
	C305.788605,119.100311 305.653076,106.808975 305.653076,94.260529 
	C313.207184,94.260529 320.442078,94.260529 327.941071,94.260529 
	C327.941071,109.659859 328.628632,124.958786 327.715393,140.161560 
	C327.031097,151.552826 318.827759,157.388596 307.811920,160.054260 
z"/>
<path fill="#2A2D3D" opacity="1.000000" stroke="none" 
	d="
M238.016296,93.995720 
	C242.768234,93.995720 247.030807,93.995720 252.187256,93.995720 
	C243.433716,104.907211 235.250778,115.107460 226.920212,125.491722 
	C235.619110,136.454590 244.262421,147.347397 253.501724,158.991333 
	C245.413803,158.991333 238.177628,159.102127 230.951904,158.877609 
	C229.804413,158.841949 228.488861,157.474457 227.618057,156.419662 
	C223.406479,151.318283 219.320251,146.113388 214.900864,140.583923 
	C210.474930,146.114868 206.434998,151.348007 202.155991,156.377762 
	C201.118439,157.597336 199.316956,158.834534 197.825226,158.887192 
	C190.533386,159.144501 183.227493,159.003723 174.956696,159.003723 
	C184.300735,147.262253 193.145645,136.147949 202.210754,124.756981 
	C194.188416,114.723495 186.227783,104.767197 177.636230,94.021797 
	C185.789185,94.021797 193.164520,93.930893 200.532166,94.127884 
	C201.541458,94.154869 202.676193,95.478630 203.472855,96.435196 
	C206.973343,100.638359 210.371017,104.927155 214.182327,109.651405 
	C217.128616,106.050369 220.106201,102.957970 222.428238,99.433655 
	C225.287720,95.093636 228.810410,92.988403 234.034012,93.964958 
	C235.160858,94.175613 236.360718,93.995720 238.016296,93.995720 
z"/>
<path fill="#2C2F3E" opacity="1.000000" stroke="none" 
	d="
M66.323242,129.999878 
	C66.323280,105.382713 66.323280,81.265556 66.323280,56.874882 
	C73.878487,56.874882 81.137283,56.874882 88.709259,56.874882 
	C88.709259,90.758911 88.709259,124.611465 88.709259,158.744247 
	C81.481750,158.744247 74.229309,158.744247 66.323212,158.744247 
	C66.323212,149.364944 66.323212,139.932419 66.323242,129.999878 
z"/>
<path fill="#2C2F3F" opacity="1.000000" stroke="none" 
	d="
M363.616943,124.000137 
	C363.599243,135.494888 363.584076,146.489624 363.551239,157.484344 
	C363.550323,157.790527 363.360443,158.096176 363.159973,158.698685 
	C356.017853,158.698685 348.783630,158.698685 341.249207,158.698685 
	C341.249207,137.333984 341.249207,115.938881 341.249207,94.244141 
	C348.462799,94.244141 355.714569,94.244141 363.617004,94.244141 
	C363.617004,103.958122 363.617004,113.729126 363.616943,124.000137 
z"/>
<path fill="#2C2F3F" opacity="1.000000" stroke="none" 
	d="
M370.466980,114.365051 
	C364.788971,105.899872 370.332733,95.075027 378.957947,94.007271 
	C385.097534,93.247215 390.582825,96.735001 392.534576,102.614029 
	C394.449921,108.383369 392.205627,114.774246 387.162506,117.911545 
	C381.690491,121.315666 376.013794,120.192589 370.466980,114.365051 
z"/>
<path fill="#F4F4F5" opacity="1.000000" stroke="none" 
	d="
M599.374512,110.339561 
	C604.335144,101.771812 609.086548,93.507095 614.492065,84.104591 
	C614.492065,97.171089 614.492065,108.745605 614.492065,120.669800 
	C607.640625,120.669800 600.936218,120.669800 593.543640,120.669800 
	C595.511780,117.159386 597.338562,113.900986 599.374512,110.339561 
z"/>
</svg>