<svg version="1.1" id="Layer_1" xmlns="http://www.w3.org/2000/svg" xmlns:xlink="http://www.w3.org/1999/xlink" x="0px" y="0px"
	 width="100%" viewBox="0 0 2308 446" enable-background="new 0 0 2308 446" xml:space="preserve">
<path fill="#FFFFFF" opacity="1.000000" stroke="none" 
	d="
M1697.000000,447.000000 
	C1131.384521,447.000000 566.269104,447.000000 1.076805,447.000000 
	C1.076805,298.398041 1.076805,149.796036 1.076805,1.097009 
	C770.333313,1.097009 1539.666626,1.097009 2308.971680,1.097009 
	C2308.971680,149.731232 2308.971680,298.365631 2308.971680,447.000000 
	C2105.129150,447.000000 1901.314575,447.000000 1697.000000,447.000000 
M995.810913,297.746857 
	C998.916870,299.339539 1001.941406,301.121979 1005.142029,302.493866 
	C1024.708130,310.880768 1045.112427,311.782074 1065.905884,309.146301 
	C1105.603271,304.114410 1131.619751,276.818237 1133.567017,236.250244 
	C1135.314575,199.841904 1134.298340,163.302170 1134.601685,126.821236 
	C1134.630371,123.363579 1133.500854,122.182053 1129.990601,122.225929 
	C1116.662964,122.392502 1103.331909,122.291267 1090.002197,122.292763 
	C1082.928711,122.293556 1082.928223,122.295967 1082.923096,129.298126 
	C1082.898438,162.289124 1083.208496,195.285049 1082.723022,228.269272 
	C1082.437378,247.674759 1074.583130,264.099792 1054.611572,266.656799 
	C1036.066040,269.031219 1021.086426,262.821228 1015.961609,243.629486 
	C1014.096741,236.645767 1013.302063,229.193588 1013.235657,221.944000 
	C1012.948608,190.621689 1013.115967,159.295273 1013.101379,127.970352 
	C1013.100525,126.216187 1012.950500,124.462090 1012.851501,122.306709 
	C996.195251,122.306709 980.061157,122.234062 963.931885,122.479362 
	C962.917542,122.494797 961.068298,124.996941 961.074036,126.335907 
	C961.233948,163.644897 960.861755,200.978149 962.156372,238.252548 
	C963.016174,263.009216 973.940308,283.372803 995.810913,297.746857 
M505.330597,310.084595 
	C507.803680,309.744202 510.279480,309.422424 512.749390,309.060303 
	C527.684814,306.870483 541.406555,301.798065 553.080566,291.940460 
	C571.230042,276.615021 579.213135,256.233215 579.745789,233.299088 
	C580.573547,197.663101 580.067566,161.996094 580.109924,126.342209 
	C580.111267,125.210251 579.926270,124.078072 579.801025,122.633133 
	C562.891663,122.633133 546.168396,122.633133 528.894165,122.633133 
	C528.894165,124.873474 528.894287,126.833290 528.894165,128.793106 
	C528.892151,160.615479 528.999023,192.438553 528.790710,224.259567 
	C528.751831,230.200409 528.043091,236.280807 526.610779,242.039948 
	C523.167847,255.882996 514.813538,265.034851 499.997864,266.732666 
	C480.170044,269.004852 466.049866,261.642578 461.209961,241.750839 
	C459.808197,235.989716 459.189575,229.907425 459.152924,223.966553 
	C458.956421,192.145386 459.057495,160.322388 459.055756,128.500015 
	C459.055634,126.576920 459.055725,124.653831 459.055725,122.571320 
	C441.387604,122.571320 424.468536,122.571320 407.234283,122.571320 
	C407.121796,124.264931 406.942078,125.713676 406.941620,127.162460 
	C406.931366,160.317688 406.816101,193.473755 407.043579,226.627457 
	C407.093536,233.904083 407.814545,241.280304 409.190735,248.424942 
	C414.204163,274.452087 428.477875,293.301819 453.347717,303.509247 
	C469.768372,310.248901 486.988953,310.959808 505.330597,310.084595 
M1406.140259,292.326904 
	C1396.319214,277.948639 1386.498047,263.570374 1376.829224,249.414993 
	C1382.552124,245.216309 1388.151489,241.824234 1392.896118,237.495255 
	C1408.163940,223.565063 1413.284790,205.702225 1412.078369,185.555008 
	C1410.767090,163.652191 1400.765991,146.865814 1382.206177,135.370483 
	C1367.528564,126.279579 1351.095947,122.618736 1334.083374,122.367744 
	C1306.602905,121.962334 1279.112183,122.254471 1251.625732,122.275078 
	C1249.868164,122.276398 1248.110962,122.475891 1246.430786,122.578484 
	C1246.430786,136.424057 1246.430786,149.660263 1246.430786,163.244965 
	C1248.626831,163.244965 1250.444458,163.244980 1252.262207,163.244980 
	C1276.083740,163.244995 1299.905884,163.165771 1323.726562,163.309662 
	C1328.686768,163.339630 1333.698364,163.873581 1338.588501,164.732315 
	C1351.754150,167.044266 1359.443115,176.518768 1359.803711,190.399323 
	C1360.138062,203.266861 1353.067627,212.782227 1340.369873,215.872467 
	C1336.221313,216.882095 1331.821411,217.216766 1327.533447,217.237595 
	C1302.379639,217.359879 1277.225220,217.297806 1252.070923,217.297913 
	C1250.159790,217.297913 1248.248657,217.297913 1246.397461,217.297913 
	C1246.397461,247.601501 1246.397461,277.009003 1246.397461,306.559967 
	C1263.794189,306.559967 1280.839966,306.559967 1298.310303,306.559967 
	C1298.310303,290.294586 1298.310303,274.364685 1298.310303,257.929932 
	C1306.681519,257.929932 1314.642334,258.110596 1322.588013,257.843292 
	C1325.884888,257.732391 1327.630005,258.977539 1329.391113,261.605988 
	C1338.750488,275.576050 1348.383545,289.362610 1357.757324,303.323273 
	C1359.529541,305.962585 1361.387085,307.046265 1364.639160,306.985443 
	C1376.296021,306.767426 1387.959351,306.899261 1399.620239,306.898956 
	C1404.699951,306.898834 1409.779663,306.898956 1416.095093,306.898956 
	C1412.465332,301.583069 1409.507690,297.251556 1406.140259,292.326904 
M1812.563477,231.060928 
	C1801.006226,241.873367 1789.967407,253.323395 1777.717041,263.283356 
	C1768.946655,270.414124 1765.037109,278.178680 1766.559937,289.321075 
	C1767.330811,294.960480 1766.694824,300.792145 1766.694824,306.519012 
	C1814.980713,306.519012 1862.361938,306.519012 1910.207520,306.519012 
	C1910.207520,294.336182 1910.045410,282.529358 1910.295288,270.731323 
	C1910.383057,266.582367 1909.116699,265.304932 1904.948730,265.346008 
	C1885.456909,265.538025 1865.962036,265.431427 1846.468262,265.431580 
	C1844.729248,265.431610 1842.990356,265.431580 1840.086304,265.431580 
	C1841.735718,263.510834 1842.460449,262.484222 1843.360840,261.646332 
	C1852.384766,253.247559 1861.694214,245.136551 1870.408081,236.429123 
	C1878.631836,228.211594 1887.431885,220.185837 1893.893188,210.661118 
	C1913.869263,181.213455 1908.852051,140.276047 1867.996094,124.614769 
	C1853.652222,119.116356 1838.777222,118.123795 1823.779419,119.107445 
	C1804.387695,120.379288 1786.578369,126.433296 1771.767456,139.539734 
	C1766.088501,144.565231 1760.729858,150.001236 1757.413818,157.426376 
	C1769.580811,164.195084 1781.373291,170.691299 1793.089722,177.321503 
	C1795.792847,178.851120 1796.795898,177.296356 1798.297729,175.492783 
	C1806.973511,165.073151 1818.147461,160.089569 1831.714233,160.912109 
	C1844.641357,161.695847 1851.863892,168.170013 1852.267700,178.930069 
	C1852.556274,186.615555 1850.446167,193.675873 1845.149048,199.115189 
	C1834.704590,209.840378 1823.791138,220.108932 1812.563477,231.060928 
M2020.780640,177.299210 
	C2033.282837,159.320908 2045.785034,141.342621 2058.681885,122.797043 
	C2057.053711,122.500565 2056.297852,122.243759 2055.541504,122.242699 
	C2039.714600,122.220581 2023.886230,122.132027 2008.062622,122.363991 
	C2006.323608,122.389473 2004.049805,123.879951 2002.969849,125.374443 
	C1977.709839,160.332184 1952.694946,195.467789 1927.305176,230.330307 
	C1923.427124,235.654968 1921.678223,240.838821 1922.013550,247.304962 
	C1922.423218,255.202225 1922.111084,263.136932 1922.111084,271.784668 
	C1955.071655,271.784668 1987.264648,271.784668 2020.083008,271.784668 
	C2020.083008,283.906555 2020.083008,295.284241 2020.083008,306.629456 
	C2037.144043,306.629456 2053.564453,306.629456 2069.934570,306.629456 
	C2070.209473,305.907166 2070.533936,305.447937 2070.537842,304.985962 
	C2070.598145,297.990234 2070.633057,290.994171 2070.640625,283.998138 
	C2070.654053,271.658661 2070.644287,271.658661 2082.754883,271.658691 
	C2087.686035,271.658691 2092.617188,271.658691 2097.481934,271.658691 
	C2097.481934,257.376282 2097.481934,243.980087 2097.481934,230.223709 
	C2089.963135,230.223709 2082.816650,230.022583 2075.688721,230.303452 
	C2071.768066,230.457947 2070.423828,229.285034 2070.557617,225.253571 
	C2070.843262,216.639145 2070.645264,208.008713 2070.645264,199.225128 
	C2053.904541,199.225128 2037.719116,199.225128 2020.941162,199.225128 
	C2020.941162,209.707581 2020.941162,219.771515 2020.941162,229.774109 
	C2008.660767,229.774109 1996.982788,229.774109 1984.284546,229.774109 
	C1996.666382,211.951416 2008.504883,194.910934 2020.780640,177.299210 
M1564.282104,302.174896 
	C1564.413940,303.616608 1564.545776,305.058319 1564.682983,306.558258 
	C1582.176270,306.558258 1599.223877,306.558258 1616.687622,306.558258 
	C1616.687622,304.579498 1616.687744,302.944427 1616.687744,301.309357 
	C1616.687866,282.819397 1616.573242,264.328033 1616.798462,245.840790 
	C1616.836792,242.701767 1617.672607,239.190338 1619.255981,236.510300 
	C1639.150269,202.836060 1659.254272,169.285736 1679.291260,135.695786 
	C1681.807617,131.477448 1684.248047,127.213806 1687.192261,122.168030 
	C1684.559204,122.168030 1682.948364,122.168022 1681.337524,122.168015 
	C1668.344604,122.167961 1655.347290,122.354828 1642.361084,122.061325 
	C1638.109131,121.965218 1635.816284,123.429359 1633.705566,127.027817 
	C1621.074829,148.560562 1608.205322,169.953293 1595.397461,191.382095 
	C1594.761108,192.447006 1593.953735,193.409805 1592.855591,194.934341 
	C1591.615112,193.092697 1590.651367,191.797119 1589.827271,190.418167 
	C1577.020508,168.989059 1564.180908,147.579224 1551.502319,126.074509 
	C1549.874390,123.313347 1548.163818,122.057861 1544.850708,122.094101 
	C1529.527588,122.261734 1514.201538,122.159821 1498.876587,122.185677 
	C1497.647583,122.187752 1496.418945,122.426628 1494.586670,122.618736 
	C1495.627075,124.596184 1496.312012,126.064972 1497.140137,127.448074 
	C1518.774902,163.578033 1540.458618,199.678864 1561.990967,235.869720 
	C1563.347778,238.150101 1564.156738,241.114990 1564.182251,243.771378 
	C1564.365723,262.925873 1564.281128,282.082977 1564.282104,302.174896 
M289.500092,265.634918 
	C267.727448,265.634918 245.954803,265.634918 223.598465,265.634918 
	C223.598465,263.050415 223.598450,261.100220 223.598450,259.150024 
	C223.598511,215.654327 223.599335,172.158615 223.597824,128.662918 
	C223.597610,122.277458 223.592545,122.277267 216.989929,122.277199 
	C203.324615,122.277069 189.659286,122.269211 175.994003,122.288818 
	C174.543915,122.290894 173.094070,122.454460 171.531464,122.549988 
	C171.531464,184.113907 171.531464,245.331238 171.531464,306.600250 
	C218.239960,306.600250 264.627380,306.600250 311.138641,306.600250 
	C311.138641,292.880493 311.138641,279.461670 311.138641,265.635254 
	C304.092010,265.635254 297.295959,265.635254 289.500092,265.634918 
M737.322815,300.874573 
	C779.594788,241.739471 821.866760,182.604370 864.972595,122.302811 
	C861.784424,122.302811 860.032104,122.302811 858.279785,122.302803 
	C843.614441,122.302750 828.946716,122.450607 814.285400,122.207695 
	C810.175659,122.139603 807.623657,123.418358 805.193726,126.751495 
	C765.650146,180.991882 725.980591,235.140488 686.340698,289.310638 
	C682.262329,294.883942 678.191284,300.462524 673.490479,306.895874 
	C676.102234,306.895874 677.538513,306.895905 678.974854,306.895905 
	C694.806702,306.895813 710.644287,306.658234 726.467102,307.035400 
	C731.433167,307.153748 734.762329,305.842285 737.322815,300.874573 
M801.330383,277.799622 
	C800.508362,278.847809 799.798950,280.014465 798.843933,280.922882 
	C795.413513,284.185913 795.072083,287.250275 798.296631,291.117432 
	C801.478088,294.932953 804.150391,299.216187 806.697754,303.501312 
	C808.271118,306.148041 810.161743,306.993195 813.168945,306.963562 
	C827.657959,306.820740 842.149109,306.898804 856.639526,306.898529 
	C860.378296,306.898468 864.117065,306.898529 869.089539,306.898529 
	C854.220032,286.244843 840.077026,266.600372 825.573364,246.454819 
	C817.407776,257.023102 809.595093,267.134705 801.330383,277.799622 
M717.497620,122.294586 
	C704.240234,122.294586 690.982849,122.294586 676.336975,122.294586 
	C690.338440,142.178345 703.585266,160.990479 717.611633,180.909622 
	C718.628357,179.266891 719.139954,178.213348 719.853882,177.321869 
	C727.873230,167.308929 735.741638,157.165924 744.053711,147.401031 
	C747.463867,143.394745 747.271484,140.816254 744.797119,135.973038 
	C739.019836,124.664612 730.869263,119.938095 717.497620,122.294586 
z"/>
<path fill="#38639D" opacity="1.000000" stroke="none" 
	d="
M995.517334,297.531219 
	C973.940308,283.372803 963.016174,263.009216 962.156372,238.252548 
	C960.861755,200.978149 961.233948,163.644897 961.074036,126.335907 
	C961.068298,124.996941 962.917542,122.494797 963.931885,122.479362 
	C980.061157,122.234062 996.195251,122.306709 1012.851501,122.306709 
	C1012.950500,124.462090 1013.100525,126.216187 1013.101379,127.970352 
	C1013.115967,159.295273 1012.948608,190.621689 1013.235657,221.944000 
	C1013.302063,229.193588 1014.096741,236.645767 1015.961609,243.629486 
	C1021.086426,262.821228 1036.066040,269.031219 1054.611572,266.656799 
	C1074.583130,264.099792 1082.437378,247.674759 1082.723022,228.269272 
	C1083.208496,195.285049 1082.898438,162.289124 1082.923096,129.298126 
	C1082.928223,122.295967 1082.928711,122.293556 1090.002197,122.292763 
	C1103.331909,122.291267 1116.662964,122.392502 1129.990601,122.225929 
	C1133.500854,122.182053 1134.630371,123.363579 1134.601685,126.821236 
	C1134.298340,163.302170 1135.314575,199.841904 1133.567017,236.250244 
	C1131.619751,276.818237 1105.603271,304.114410 1065.905884,309.146301 
	C1045.112427,311.782074 1024.708130,310.880768 1005.142029,302.493866 
	C1001.941406,301.121979 998.916870,299.339539 995.517334,297.531219 
z"/>
<path fill="#284D97" opacity="1.000000" stroke="none" 
	d="
M504.865814,310.102478 
	C486.988953,310.959808 469.768372,310.248901 453.347717,303.509247 
	C428.477875,293.301819 414.204163,274.452087 409.190735,248.424942 
	C407.814545,241.280304 407.093536,233.904083 407.043579,226.627457 
	C406.816101,193.473755 406.931366,160.317688 406.941620,127.162460 
	C406.942078,125.713676 407.121796,124.264931 407.234283,122.571320 
	C424.468536,122.571320 441.387604,122.571320 459.055725,122.571320 
	C459.055725,124.653831 459.055634,126.576920 459.055756,128.500015 
	C459.057495,160.322388 458.956421,192.145386 459.152924,223.966553 
	C459.189575,229.907425 459.808197,235.989716 461.209961,241.750839 
	C466.049866,261.642578 480.170044,269.004852 499.997864,266.732666 
	C514.813538,265.034851 523.167847,255.882996 526.610779,242.039948 
	C528.043091,236.280807 528.751831,230.200409 528.790710,224.259567 
	C528.999023,192.438553 528.892151,160.615479 528.894165,128.793106 
	C528.894287,126.833290 528.894165,124.873474 528.894165,122.633133 
	C546.168396,122.633133 562.891663,122.633133 579.801025,122.633133 
	C579.926270,124.078072 580.111267,125.210251 580.109924,126.342209 
	C580.067566,161.996094 580.573547,197.663101 579.745789,233.299088 
	C579.213135,256.233215 571.230042,276.615021 553.080566,291.940460 
	C541.406555,301.798065 527.684814,306.870483 512.749390,309.060303 
	C510.279480,309.422424 507.803680,309.744202 504.865814,310.102478 
z"/>
<path fill="#416DA0" opacity="1.000000" stroke="none" 
	d="
M1406.345215,292.623474 
	C1409.507690,297.251556 1412.465332,301.583069 1416.095093,306.898956 
	C1409.779663,306.898956 1404.699951,306.898834 1399.620239,306.898956 
	C1387.959351,306.899261 1376.296021,306.767426 1364.639160,306.985443 
	C1361.387085,307.046265 1359.529541,305.962585 1357.757324,303.323273 
	C1348.383545,289.362610 1338.750488,275.576050 1329.391113,261.605988 
	C1327.630005,258.977539 1325.884888,257.732391 1322.588013,257.843292 
	C1314.642334,258.110596 1306.681519,257.929932 1298.310303,257.929932 
	C1298.310303,274.364685 1298.310303,290.294586 1298.310303,306.559967 
	C1280.839966,306.559967 1263.794189,306.559967 1246.397461,306.559967 
	C1246.397461,277.009003 1246.397461,247.601501 1246.397461,217.297913 
	C1248.248657,217.297913 1250.159790,217.297913 1252.070923,217.297913 
	C1277.225220,217.297806 1302.379639,217.359879 1327.533447,217.237595 
	C1331.821411,217.216766 1336.221313,216.882095 1340.369873,215.872467 
	C1353.067627,212.782227 1360.138062,203.266861 1359.803711,190.399323 
	C1359.443115,176.518768 1351.754150,167.044266 1338.588501,164.732315 
	C1333.698364,163.873581 1328.686768,163.339630 1323.726562,163.309662 
	C1299.905884,163.165771 1276.083740,163.244995 1252.262207,163.244980 
	C1250.444458,163.244980 1248.626831,163.244965 1246.430786,163.244965 
	C1246.430786,149.660263 1246.430786,136.424057 1246.430786,122.578484 
	C1248.110962,122.475891 1249.868164,122.276398 1251.625732,122.275078 
	C1279.112183,122.254471 1306.602905,121.962334 1334.083374,122.367744 
	C1351.095947,122.618736 1367.528564,126.279579 1382.206177,135.370483 
	C1400.765991,146.865814 1410.767090,163.652191 1412.078369,185.555008 
	C1413.284790,205.702225 1408.163940,223.565063 1392.896118,237.495255 
	C1388.151489,241.824234 1382.552124,245.216309 1376.829224,249.414993 
	C1386.498047,263.570374 1396.319214,277.948639 1406.345215,292.623474 
z"/>
<path fill="#4F83A6" opacity="1.000000" stroke="none" 
	d="
M1812.817627,230.813629 
	C1823.791138,220.108932 1834.704590,209.840378 1845.149048,199.115189 
	C1850.446167,193.675873 1852.556274,186.615555 1852.267700,178.930069 
	C1851.863892,168.170013 1844.641357,161.695847 1831.714233,160.912109 
	C1818.147461,160.089569 1806.973511,165.073151 1798.297729,175.492783 
	C1796.795898,177.296356 1795.792847,178.851120 1793.089722,177.321503 
	C1781.373291,170.691299 1769.580811,164.195084 1757.413818,157.426376 
	C1760.729858,150.001236 1766.088501,144.565231 1771.767456,139.539734 
	C1786.578369,126.433296 1804.387695,120.379288 1823.779419,119.107445 
	C1838.777222,118.123795 1853.652222,119.116356 1867.996094,124.614769 
	C1908.852051,140.276047 1913.869263,181.213455 1893.893188,210.661118 
	C1887.431885,220.185837 1878.631836,228.211594 1870.408081,236.429123 
	C1861.694214,245.136551 1852.384766,253.247559 1843.360840,261.646332 
	C1842.460449,262.484222 1841.735718,263.510834 1840.086304,265.431580 
	C1842.990356,265.431580 1844.729248,265.431610 1846.468262,265.431580 
	C1865.962036,265.431427 1885.456909,265.538025 1904.948730,265.346008 
	C1909.116699,265.304932 1910.383057,266.582367 1910.295288,270.731323 
	C1910.045410,282.529358 1910.207520,294.336182 1910.207520,306.519012 
	C1862.361938,306.519012 1814.980713,306.519012 1766.694824,306.519012 
	C1766.694824,300.792145 1767.330811,294.960480 1766.559937,289.321075 
	C1765.037109,278.178680 1768.946655,270.414124 1777.717041,263.283356 
	C1789.967407,253.323395 1801.006226,241.873367 1812.817627,230.813629 
z"/>
<path fill="#588FA9" opacity="1.000000" stroke="none" 
	d="
M2020.562012,177.584824 
	C2008.504883,194.910934 1996.666382,211.951416 1984.284546,229.774109 
	C1996.982788,229.774109 2008.660767,229.774109 2020.941162,229.774109 
	C2020.941162,219.771515 2020.941162,209.707581 2020.941162,199.225128 
	C2037.719116,199.225128 2053.904541,199.225128 2070.645264,199.225128 
	C2070.645264,208.008713 2070.843262,216.639145 2070.557617,225.253571 
	C2070.423828,229.285034 2071.768066,230.457947 2075.688721,230.303452 
	C2082.816650,230.022583 2089.963135,230.223709 2097.481934,230.223709 
	C2097.481934,243.980087 2097.481934,257.376282 2097.481934,271.658691 
	C2092.617188,271.658691 2087.686035,271.658691 2082.754883,271.658691 
	C2070.644287,271.658661 2070.654053,271.658661 2070.640625,283.998138 
	C2070.633057,290.994171 2070.598145,297.990234 2070.537842,304.985962 
	C2070.533936,305.447937 2070.209473,305.907166 2069.934570,306.629456 
	C2053.564453,306.629456 2037.144043,306.629456 2020.083008,306.629456 
	C2020.083008,295.284241 2020.083008,283.906555 2020.083008,271.784668 
	C1987.264648,271.784668 1955.071655,271.784668 1922.111084,271.784668 
	C1922.111084,263.136932 1922.423218,255.202225 1922.013550,247.304962 
	C1921.678223,240.838821 1923.427124,235.654968 1927.305176,230.330307 
	C1952.694946,195.467789 1977.709839,160.332184 2002.969849,125.374443 
	C2004.049805,123.879951 2006.323608,122.389473 2008.062622,122.363991 
	C2023.886230,122.132027 2039.714600,122.220581 2055.541504,122.242699 
	C2056.297852,122.243759 2057.053711,122.500565 2058.681885,122.797043 
	C2045.785034,141.342621 2033.282837,159.320908 2020.562012,177.584824 
z"/>
<path fill="#4879A3" opacity="1.000000" stroke="none" 
	d="
M1564.281738,301.707092 
	C1564.281128,282.082977 1564.365723,262.925873 1564.182251,243.771378 
	C1564.156738,241.114990 1563.347778,238.150101 1561.990967,235.869720 
	C1540.458618,199.678864 1518.774902,163.578033 1497.140137,127.448074 
	C1496.312012,126.064972 1495.627075,124.596184 1494.586670,122.618736 
	C1496.418945,122.426628 1497.647583,122.187752 1498.876587,122.185677 
	C1514.201538,122.159821 1529.527588,122.261734 1544.850708,122.094101 
	C1548.163818,122.057861 1549.874390,123.313347 1551.502319,126.074509 
	C1564.180908,147.579224 1577.020508,168.989059 1589.827271,190.418167 
	C1590.651367,191.797119 1591.615112,193.092697 1592.855591,194.934341 
	C1593.953735,193.409805 1594.761108,192.447006 1595.397461,191.382095 
	C1608.205322,169.953293 1621.074829,148.560562 1633.705566,127.027817 
	C1635.816284,123.429359 1638.109131,121.965218 1642.361084,122.061325 
	C1655.347290,122.354828 1668.344604,122.167961 1681.337524,122.168015 
	C1682.948364,122.168022 1684.559204,122.168030 1687.192261,122.168030 
	C1684.248047,127.213806 1681.807617,131.477448 1679.291260,135.695786 
	C1659.254272,169.285736 1639.150269,202.836060 1619.255981,236.510300 
	C1617.672607,239.190338 1616.836792,242.701767 1616.798462,245.840790 
	C1616.573242,264.328033 1616.687866,282.819397 1616.687744,301.309357 
	C1616.687744,302.944427 1616.687622,304.579498 1616.687622,306.558258 
	C1599.223877,306.558258 1582.176270,306.558258 1564.682983,306.558258 
	C1564.545776,305.058319 1564.413940,303.616608 1564.281738,301.707092 
z"/>
<path fill="#224294" opacity="1.000000" stroke="none" 
	d="
M290.000000,265.635071 
	C297.295959,265.635254 304.092010,265.635254 311.138641,265.635254 
	C311.138641,279.461670 311.138641,292.880493 311.138641,306.600250 
	C264.627380,306.600250 218.239960,306.600250 171.531464,306.600250 
	C171.531464,245.331238 171.531464,184.113907 171.531464,122.549988 
	C173.094070,122.454460 174.543915,122.290894 175.994003,122.288818 
	C189.659286,122.269211 203.324615,122.277069 216.989929,122.277199 
	C223.592545,122.277267 223.597610,122.277458 223.597824,128.662918 
	C223.599335,172.158615 223.598511,215.654327 223.598450,259.150024 
	C223.598450,261.100220 223.598465,263.050415 223.598465,265.634918 
	C245.954803,265.634918 267.727448,265.634918 290.000000,265.635071 
z"/>
<path fill="#315799" opacity="1.000000" stroke="none" 
	d="
M737.121704,301.177338 
	C734.762329,305.842285 731.433167,307.153748 726.467102,307.035400 
	C710.644287,306.658234 694.806702,306.895813 678.974854,306.895905 
	C677.538513,306.895905 676.102234,306.895874 673.490479,306.895874 
	C678.191284,300.462524 682.262329,294.883942 686.340698,289.310638 
	C725.980591,235.140488 765.650146,180.991882 805.193726,126.751495 
	C807.623657,123.418358 810.175659,122.139603 814.285400,122.207695 
	C828.946716,122.450607 843.614441,122.302750 858.279785,122.302803 
	C860.032104,122.302811 861.784424,122.302811 864.972595,122.302811 
	C821.866760,182.604370 779.594788,241.739471 737.121704,301.177338 
z"/>
<path fill="#325899" opacity="1.000000" stroke="none" 
	d="
M801.556396,277.522949 
	C809.595093,267.134705 817.407776,257.023102 825.573364,246.454819 
	C840.077026,266.600372 854.220032,286.244843 869.089539,306.898529 
	C864.117065,306.898529 860.378296,306.898468 856.639526,306.898529 
	C842.149109,306.898804 827.657959,306.820740 813.168945,306.963562 
	C810.161743,306.993195 808.271118,306.148041 806.697754,303.501312 
	C804.150391,299.216187 801.478088,294.932953 798.296631,291.117432 
	C795.072083,287.250275 795.413513,284.185913 798.843933,280.922882 
	C799.798950,280.014465 800.508362,278.847809 801.556396,277.522949 
z"/>
<path fill="#33599A" opacity="1.000000" stroke="none" 
	d="
M717.996948,122.294678 
	C730.869263,119.938095 739.019836,124.664612 744.797119,135.973038 
	C747.271484,140.816254 747.463867,143.394745 744.053711,147.401031 
	C735.741638,157.165924 727.873230,167.308929 719.853882,177.321869 
	C719.139954,178.213348 718.628357,179.266891 717.611633,180.909622 
	C703.585266,160.990479 690.338440,142.178345 676.336975,122.294586 
	C690.982849,122.294586 704.240234,122.294586 717.996948,122.294678 
z"/>
</svg>