<svg version="1.1" id="Layer_1" xmlns="http://www.w3.org/2000/svg" xmlns:xlink="http://www.w3.org/1999/xlink" x="0px" y="0px"
	 width="100%" viewBox="0 0 1226 404" enable-background="new 0 0 1226 404" xml:space="preserve">
<path fill="#FFFFFF" opacity="1.000000" stroke="none" 
	d="
M894.000000,405.000000 
	C596.000061,405.000000 298.500092,405.000000 1.000120,405.000000 
	C1.000080,270.333405 1.000080,135.666824 1.000040,1.000174 
	C409.666504,1.000116 818.333008,1.000116 1226.999634,1.000058 
	C1226.999756,135.666489 1226.999756,270.332977 1226.999878,404.999756 
	C1116.166626,405.000000 1005.333313,405.000000 894.000000,405.000000 
M878.500000,268.002655 
	C904.937622,268.002655 931.375183,268.002655 957.898315,268.002655 
	C957.898315,257.071198 957.898315,246.660782 957.898315,235.777161 
	C941.966248,235.777161 926.268005,235.777161 910.569702,235.777161 
	C910.212097,235.260971 909.854431,234.744797 909.496826,234.228607 
	C910.883301,233.354996 912.458557,232.680878 913.626404,231.576126 
	C922.823730,222.876175 932.203430,214.347534 941.032898,205.284775 
	C959.991577,185.825119 963.445251,156.627869 949.733337,135.002090 
	C936.813110,114.625099 912.115662,105.167839 884.845886,110.155075 
	C863.557129,114.048492 846.919373,131.384232 842.051819,154.995453 
	C841.101074,159.607300 840.797913,164.352661 840.169739,169.241150 
	C855.068481,169.241150 868.980713,169.241150 883.126404,169.241150 
	C883.126404,166.150909 882.890747,163.315887 883.169861,160.532501 
	C884.063416,151.621063 889.460083,145.653809 897.559387,144.328262 
	C904.558350,143.182800 912.439819,147.550186 915.406982,154.438766 
	C918.068848,160.618530 917.966492,167.068665 914.629333,172.744598 
	C910.952576,178.997986 906.896790,185.269196 901.891602,190.457382 
	C884.281555,208.711090 863.441895,222.640839 840.968567,234.239716 
	C839.464600,235.015915 837.457520,236.764236 837.415527,238.114273 
	C837.111145,247.896133 837.252014,257.691833 837.252014,268.002655 
	C850.948669,268.002655 864.224304,268.002655 878.500000,268.002655 
M1052.500488,112.831642 
	C1047.835571,112.831642 1043.154907,113.067581 1038.510742,112.757294 
	C1034.766724,112.507141 1032.666870,113.669502 1030.662842,117.071541 
	C1012.859253,147.296768 994.796997,177.369614 976.833801,207.500961 
	C976.082336,208.761414 975.036377,210.145233 975.008972,211.489563 
	C974.839905,219.774490 974.924133,228.064575 974.924133,236.989960 
	C999.693909,236.989960 1024.044434,236.989960 1048.884277,236.989960 
	C1048.884277,247.678986 1048.884277,257.730530 1048.884277,267.695557 
	C1061.977539,267.695557 1074.565186,267.695557 1087.580322,267.695557 
	C1087.580322,257.302002 1087.580322,247.210144 1087.580322,236.688110 
	C1092.606201,236.688110 1097.203491,236.688110 1101.897949,236.688110 
	C1101.897949,226.475052 1101.897949,216.710785 1101.897949,206.462585 
	C1097.076172,206.462585 1092.473022,206.462585 1087.366211,206.462585 
	C1087.366211,175.085159 1087.366211,144.187592 1087.366211,112.831627 
	C1075.739746,112.831627 1064.619995,112.831627 1052.500488,112.831642 
M725.661621,287.086975 
	C720.906555,296.472107 716.151550,305.857239 711.091187,315.845032 
	C722.710815,315.845032 733.200378,315.702728 743.681763,315.931854 
	C746.820374,316.000488 748.357849,314.922485 749.757202,312.223755 
	C775.000732,263.541870 800.342957,214.911194 825.643127,166.258682 
	C826.200378,165.187149 826.514160,163.989059 827.083008,162.472977 
	C814.837830,162.472977 803.184937,162.341049 791.542542,162.629807 
	C789.979980,162.668549 787.856812,164.506409 787.034973,166.061661 
	C781.445129,176.639236 776.146179,187.370285 770.728699,198.039322 
	C768.188293,203.042404 765.593262,208.017792 762.702454,213.627777 
	C754.587158,197.417770 746.716187,181.927261 739.112366,166.306732 
	C737.639893,163.281860 735.931030,162.328247 732.644958,162.389145 
	C721.152039,162.602142 709.652710,162.460373 698.155884,162.487961 
	C696.957703,162.490829 695.760010,162.723755 694.182251,162.889954 
	C695.481628,165.325928 696.486633,167.233185 697.512085,169.129349 
	C711.979431,195.880890 726.414062,222.650330 740.975525,249.350571 
	C742.396301,251.955658 742.543091,253.935547 741.111816,256.635437 
	C735.898010,266.470428 730.990967,276.468048 725.661621,287.086975 
M326.006042,197.500000 
	C326.006042,185.921326 326.006042,174.342651 326.006042,162.787292 
	C313.389191,162.787292 301.462555,162.787292 289.191681,162.787292 
	C289.191681,164.909744 289.191803,166.717514 289.191650,168.525284 
	C289.190277,187.022690 289.207367,205.520126 289.177338,224.017487 
	C289.167023,230.371872 287.300537,235.749359 281.336700,239.117493 
	C267.786804,246.769943 253.226273,238.627579 253.156326,223.193771 
	C253.073273,204.863388 253.135773,186.532333 253.135223,168.201569 
	C253.135162,166.426758 253.135223,164.651932 253.135223,162.809677 
	C240.672256,162.809677 228.772217,162.809677 216.730133,162.809677 
	C216.730133,186.943512 216.365662,210.746582 216.863525,234.531586 
	C217.174149,249.370697 224.916794,260.172485 238.636353,265.826538 
	C258.654877,274.076569 279.360840,274.220398 299.628601,267.433563 
	C318.225525,261.206238 325.948730,248.840652 326.001221,228.995712 
	C326.028107,218.830551 326.006012,208.665237 326.006042,197.500000 
M474.442566,215.499207 
	C474.445374,220.332138 474.369965,225.166595 474.464569,229.997742 
	C474.874146,250.915192 484.754303,263.644684 504.967804,268.922485 
	C518.505981,272.457397 532.291443,272.851166 546.036560,270.488739 
	C572.387756,265.959656 585.082031,251.518539 584.136658,225.033173 
	C583.459412,206.059113 584.002930,187.041489 584.001770,168.043304 
	C584.001648,166.290710 584.001770,164.538132 584.001770,162.772980 
	C571.412964,162.772980 559.483765,162.772980 547.175293,162.772980 
	C547.175293,164.874527 547.175354,166.676651 547.175293,168.478760 
	C547.174194,186.976990 547.166931,205.475235 547.175110,223.973465 
	C547.178284,231.242599 544.588684,236.925858 537.597168,240.033783 
	C524.151733,246.010651 511.205627,237.853806 511.143036,223.233994 
	C511.064545,204.902740 511.123138,186.570908 511.122589,168.239319 
	C511.122528,166.458374 511.122559,164.677429 511.122559,162.792908 
	C498.693054,162.792908 486.789795,162.792908 474.442749,162.792908 
	C474.442749,180.240906 474.442749,197.370178 474.442566,215.499207 
M118.931480,236.500000 
	C118.931480,246.787308 118.931480,257.074615 118.931480,267.590515 
	C147.940399,267.590515 176.492783,267.590515 205.286652,267.590515 
	C205.286652,256.091583 205.286652,244.848160 205.286652,233.150665 
	C189.437500,233.150665 173.864243,233.150665 157.847504,233.150665 
	C157.847504,192.804840 157.847504,152.910309 157.847504,112.777069 
	C144.665817,112.777069 131.936188,112.777069 118.931473,112.777069 
	C118.931473,153.888184 118.931473,194.694092 118.931480,236.500000 
M431.539124,162.472809 
	C430.206116,162.472778 428.841217,162.660492 427.545593,162.440384 
	C421.806183,161.465347 418.004211,163.700165 414.664459,168.490463 
	C409.958588,175.240143 404.439087,181.422501 399.018524,188.156754 
	C394.582886,182.644501 389.956543,177.958618 386.611908,172.488998 
	C381.623505,164.331375 375.179596,161.248138 365.620850,162.285156 
	C357.312286,163.186523 348.828522,162.472748 339.549652,162.472748 
	C353.305603,179.679947 366.377930,196.031998 379.554321,212.514252 
	C364.864136,230.908493 350.370636,249.056458 335.237854,268.004852 
	C348.343903,268.004852 360.429291,268.146637 372.505005,267.868500 
	C374.573059,267.820923 377.193176,266.483795 378.546753,264.885651 
	C385.825928,256.291382 392.785492,247.426437 400.121155,238.325256 
	C407.560822,247.580536 414.598755,256.407288 421.746552,265.144196 
	C422.714325,266.327057 424.219666,267.853943 425.499237,267.875946 
	C437.585083,268.083740 449.675934,267.999603 462.802338,267.999603 
	C448.024414,249.453766 433.875488,231.697296 419.577484,213.753723 
	C433.161652,196.788483 446.583740,180.025681 460.638306,162.472977 
	C450.454468,162.472977 441.490448,162.472977 431.539124,162.472809 
M604.671692,176.505524 
	C604.671692,206.896408 604.671692,237.287292 604.671692,267.724426 
	C617.157776,267.724426 629.058105,267.724426 640.934387,267.724426 
	C640.934387,232.562714 640.934387,197.687881 640.934387,162.740265 
	C628.757812,162.740265 616.871338,162.740265 604.671570,162.740265 
	C604.671570,167.215607 604.671570,171.362442 604.671692,176.505524 
M648.985291,186.108231 
	C651.605835,199.588837 662.601135,207.077911 674.661743,203.596832 
	C686.273438,200.245361 692.432739,187.268539 687.967163,175.564224 
	C684.393555,166.197647 675.090698,160.990173 665.221069,162.831512 
	C655.090271,164.721588 648.826538,173.332489 648.985291,186.108231 
z"/>
<path fill="#292C3C" opacity="1.000000" stroke="none" 
	d="
M878.000000,268.002655 
	C864.224304,268.002655 850.948669,268.002655 837.252014,268.002655 
	C837.252014,257.691833 837.111145,247.896133 837.415527,238.114273 
	C837.457520,236.764236 839.464600,235.015915 840.968567,234.239716 
	C863.441895,222.640839 884.281555,208.711090 901.891602,190.457382 
	C906.896790,185.269196 910.952576,178.997986 914.629333,172.744598 
	C917.966492,167.068665 918.068848,160.618530 915.406982,154.438766 
	C912.439819,147.550186 904.558350,143.182800 897.559387,144.328262 
	C889.460083,145.653809 884.063416,151.621063 883.169861,160.532501 
	C882.890747,163.315887 883.126404,166.150909 883.126404,169.241150 
	C868.980713,169.241150 855.068481,169.241150 840.169739,169.241150 
	C840.797913,164.352661 841.101074,159.607300 842.051819,154.995453 
	C846.919373,131.384232 863.557129,114.048492 884.845886,110.155075 
	C912.115662,105.167839 936.813110,114.625099 949.733337,135.002090 
	C963.445251,156.627869 959.991577,185.825119 941.032898,205.284775 
	C932.203430,214.347534 922.823730,222.876175 913.626404,231.576126 
	C912.458557,232.680878 910.883301,233.354996 909.496826,234.228607 
	C909.854431,234.744797 910.212097,235.260971 910.569702,235.777161 
	C926.268005,235.777161 941.966248,235.777161 957.898315,235.777161 
	C957.898315,246.660782 957.898315,257.071198 957.898315,268.002655 
	C931.375183,268.002655 904.937622,268.002655 878.000000,268.002655 
z"/>
<path fill="#292C3C" opacity="1.000000" stroke="none" 
	d="
M1053.000366,112.831635 
	C1064.619995,112.831627 1075.739746,112.831627 1087.366211,112.831627 
	C1087.366211,144.187592 1087.366211,175.085159 1087.366211,206.462585 
	C1092.473022,206.462585 1097.076172,206.462585 1101.897949,206.462585 
	C1101.897949,216.710785 1101.897949,226.475052 1101.897949,236.688110 
	C1097.203491,236.688110 1092.606201,236.688110 1087.580322,236.688110 
	C1087.580322,247.210144 1087.580322,257.302002 1087.580322,267.695557 
	C1074.565186,267.695557 1061.977539,267.695557 1048.884277,267.695557 
	C1048.884277,257.730530 1048.884277,247.678986 1048.884277,236.989960 
	C1024.044434,236.989960 999.693909,236.989960 974.924133,236.989960 
	C974.924133,228.064575 974.839905,219.774490 975.008972,211.489563 
	C975.036377,210.145233 976.082336,208.761414 976.833801,207.500961 
	C994.796997,177.369614 1012.859253,147.296768 1030.662842,117.071541 
	C1032.666870,113.669502 1034.766724,112.507141 1038.510742,112.757294 
	C1043.154907,113.067581 1047.835571,112.831642 1053.000366,112.831635 
M1048.705444,155.656708 
	C1048.705444,153.101089 1048.705444,150.545486 1048.705444,147.989868 
	C1048.372925,147.911911 1048.040405,147.833954 1047.707886,147.755997 
	C1036.601929,167.143784 1025.495972,186.531586 1014.217407,206.220886 
	C1026.191406,206.220886 1037.257324,206.220886 1048.705444,206.220886 
	C1048.705444,189.464264 1048.705444,173.038788 1048.705444,155.656708 
z"/>
<path fill="#2B2E3D" opacity="1.000000" stroke="none" 
	d="
M725.814941,286.745667 
	C730.990967,276.468048 735.898010,266.470428 741.111816,256.635437 
	C742.543091,253.935547 742.396301,251.955658 740.975525,249.350571 
	C726.414062,222.650330 711.979431,195.880890 697.512085,169.129349 
	C696.486633,167.233185 695.481628,165.325928 694.182251,162.889954 
	C695.760010,162.723755 696.957703,162.490829 698.155884,162.487961 
	C709.652710,162.460373 721.152039,162.602142 732.644958,162.389145 
	C735.931030,162.328247 737.639893,163.281860 739.112366,166.306732 
	C746.716187,181.927261 754.587158,197.417770 762.702454,213.627777 
	C765.593262,208.017792 768.188293,203.042404 770.728699,198.039322 
	C776.146179,187.370285 781.445129,176.639236 787.034973,166.061661 
	C787.856812,164.506409 789.979980,162.668549 791.542542,162.629807 
	C803.184937,162.341049 814.837830,162.472977 827.083008,162.472977 
	C826.514160,163.989059 826.200378,165.187149 825.643127,166.258682 
	C800.342957,214.911194 775.000732,263.541870 749.757202,312.223755 
	C748.357849,314.922485 746.820374,316.000488 743.681763,315.931854 
	C733.200378,315.702728 722.710815,315.845032 711.091187,315.845032 
	C716.151550,305.857239 720.906555,296.472107 725.814941,286.745667 
z"/>
<path fill="#2B2E3E" opacity="1.000000" stroke="none" 
	d="
M326.006042,198.000000 
	C326.006012,208.665237 326.028107,218.830551 326.001221,228.995712 
	C325.948730,248.840652 318.225525,261.206238 299.628601,267.433563 
	C279.360840,274.220398 258.654877,274.076569 238.636353,265.826538 
	C224.916794,260.172485 217.174149,249.370697 216.863525,234.531586 
	C216.365662,210.746582 216.730133,186.943512 216.730133,162.809677 
	C228.772217,162.809677 240.672256,162.809677 253.135223,162.809677 
	C253.135223,164.651932 253.135162,166.426758 253.135223,168.201569 
	C253.135773,186.532333 253.073273,204.863388 253.156326,223.193771 
	C253.226273,238.627579 267.786804,246.769943 281.336700,239.117493 
	C287.300537,235.749359 289.167023,230.371872 289.177338,224.017487 
	C289.207367,205.520126 289.190277,187.022690 289.191650,168.525284 
	C289.191803,166.717514 289.191681,164.909744 289.191681,162.787292 
	C301.462555,162.787292 313.389191,162.787292 326.006042,162.787292 
	C326.006042,174.342651 326.006042,185.921326 326.006042,198.000000 
z"/>
<path fill="#2B2E3E" opacity="1.000000" stroke="none" 
	d="
M474.442657,214.999329 
	C474.442749,197.370178 474.442749,180.240906 474.442749,162.792908 
	C486.789795,162.792908 498.693054,162.792908 511.122559,162.792908 
	C511.122559,164.677429 511.122528,166.458374 511.122589,168.239319 
	C511.123138,186.570908 511.064545,204.902740 511.143036,223.233994 
	C511.205627,237.853806 524.151733,246.010651 537.597168,240.033783 
	C544.588684,236.925858 547.178284,231.242599 547.175110,223.973465 
	C547.166931,205.475235 547.174194,186.976990 547.175293,168.478760 
	C547.175354,166.676651 547.175293,164.874527 547.175293,162.772980 
	C559.483765,162.772980 571.412964,162.772980 584.001770,162.772980 
	C584.001770,164.538132 584.001648,166.290710 584.001770,168.043304 
	C584.002930,187.041489 583.459412,206.059113 584.136658,225.033173 
	C585.082031,251.518539 572.387756,265.959656 546.036560,270.488739 
	C532.291443,272.851166 518.505981,272.457397 504.967804,268.922485 
	C484.754303,263.644684 474.874146,250.915192 474.464569,229.997742 
	C474.369965,225.166595 474.445374,220.332138 474.442657,214.999329 
z"/>
<path fill="#2B2E3D" opacity="1.000000" stroke="none" 
	d="
M118.931473,236.000000 
	C118.931473,194.694092 118.931473,153.888184 118.931473,112.777069 
	C131.936188,112.777069 144.665817,112.777069 157.847504,112.777069 
	C157.847504,152.910309 157.847504,192.804840 157.847504,233.150665 
	C173.864243,233.150665 189.437500,233.150665 205.286652,233.150665 
	C205.286652,244.848160 205.286652,256.091583 205.286652,267.590515 
	C176.492783,267.590515 147.940399,267.590515 118.931480,267.590515 
	C118.931480,257.074615 118.931480,246.787308 118.931473,236.000000 
z"/>
<path fill="#2A2D3D" opacity="1.000000" stroke="none" 
	d="
M432.032776,162.472900 
	C441.490448,162.472977 450.454468,162.472977 460.638306,162.472977 
	C446.583740,180.025681 433.161652,196.788483 419.577484,213.753723 
	C433.875488,231.697296 448.024414,249.453766 462.802338,267.999603 
	C449.675934,267.999603 437.585083,268.083740 425.499237,267.875946 
	C424.219666,267.853943 422.714325,266.327057 421.746552,265.144196 
	C414.598755,256.407288 407.560822,247.580536 400.121155,238.325256 
	C392.785492,247.426437 385.825928,256.291382 378.546753,264.885651 
	C377.193176,266.483795 374.573059,267.820923 372.505005,267.868500 
	C360.429291,268.146637 348.343903,268.004852 335.237854,268.004852 
	C350.370636,249.056458 364.864136,230.908493 379.554321,212.514252 
	C366.377930,196.031998 353.305603,179.679947 339.549652,162.472748 
	C348.828522,162.472748 357.312286,163.186523 365.620850,162.285156 
	C375.179596,161.248138 381.623505,164.331375 386.611908,172.488998 
	C389.956543,177.958618 394.582886,182.644501 399.018524,188.156754 
	C404.439087,181.422501 409.958588,175.240143 414.664459,168.490463 
	C418.004211,163.700165 421.806183,161.465347 427.545593,162.440384 
	C428.841217,162.660492 430.206116,162.472778 432.032776,162.472900 
z"/>
<path fill="#292C3C" opacity="1.000000" stroke="none" 
	d="
M604.671631,176.007416 
	C604.671570,171.362442 604.671570,167.215607 604.671570,162.740265 
	C616.871338,162.740265 628.757812,162.740265 640.934387,162.740265 
	C640.934387,197.687881 640.934387,232.562714 640.934387,267.724426 
	C629.058105,267.724426 617.157776,267.724426 604.671692,267.724426 
	C604.671692,237.287292 604.671692,206.896408 604.671631,176.007416 
z"/>
<path fill="#2A2D3D" opacity="1.000000" stroke="none" 
	d="
M648.956726,185.668945 
	C648.826538,173.332489 655.090271,164.721588 665.221069,162.831512 
	C675.090698,160.990173 684.393555,166.197647 687.967163,175.564224 
	C692.432739,187.268539 686.273438,200.245361 674.661743,203.596832 
	C662.601135,207.077911 651.605835,199.588837 648.956726,185.668945 
z"/>
<path fill="#F6F6F6" opacity="1.000000" stroke="none" 
	d="
M1048.705444,156.135010 
	C1048.705444,173.038788 1048.705444,189.464264 1048.705444,206.220886 
	C1037.257324,206.220886 1026.191406,206.220886 1014.217407,206.220886 
	C1025.495972,186.531586 1036.601929,167.143784 1047.707886,147.755997 
	C1048.040405,147.833954 1048.372925,147.911911 1048.705444,147.989868 
	C1048.705444,150.545486 1048.705444,153.101089 1048.705444,156.135010 
z"/>
</svg>