<svg version="1.1" id="Layer_1" xmlns="http://www.w3.org/2000/svg" xmlns:xlink="http://www.w3.org/1999/xlink" x="0px" y="0px"
	 width="100%" viewBox="0 0 1224 230" enable-background="new 0 0 1224 230" xml:space="preserve">
<path fill="#FFFFFF" opacity="1.000000" stroke="none" 
	d="
M905.000000,231.000000 
	C603.333313,231.000000 302.166656,231.000000 1.000000,231.000000 
	C1.000000,154.333328 1.000000,77.666664 1.000000,1.000000 
	C409.000000,1.000000 817.000000,1.000000 1225.000000,1.000000 
	C1225.000000,77.666664 1225.000000,154.333328 1225.000000,231.000000 
	C1118.500000,231.000000 1012.000000,231.000000 905.000000,231.000000 
M599.113464,156.652161 
	C608.149475,149.814987 613.412354,140.476440 613.937927,129.453094 
	C614.864990,110.009315 614.669617,90.511925 614.936951,71.036888 
	C614.963684,69.090660 614.940491,67.143738 614.940491,65.083809 
	C605.487000,65.083809 596.574036,65.083809 587.180603,65.083809 
	C587.180603,66.945206 587.180603,68.573036 587.180603,70.200859 
	C587.180786,85.694023 587.280029,101.188210 587.119019,116.679703 
	C587.072632,121.140480 586.800171,125.726028 585.712708,130.021790 
	C583.595764,138.384201 577.251953,142.559601 568.127686,142.411591 
	C559.246460,142.267532 553.340942,137.996704 551.177734,129.789932 
	C550.422241,126.923470 550.012939,123.884407 549.989258,120.919815 
	C549.854858,104.095177 549.884766,87.269211 549.859619,70.443703 
	C549.856934,68.672935 549.859253,66.902168 549.859253,65.178055 
	C540.158691,65.178055 531.094360,65.178055 521.820068,65.178055 
	C521.820068,82.837364 521.808044,100.147758 521.830933,117.458115 
	C521.835083,120.622002 521.797180,123.803070 522.093628,126.946495 
	C523.382629,140.615921 528.537476,152.516678 541.123291,159.007263 
	C560.350342,168.922745 579.760559,168.687286 599.113464,156.652161 
M244.674927,159.944214 
	C256.748718,166.152420 269.604462,167.038498 282.615723,164.604736 
	C301.966797,160.985107 314.500214,149.272339 315.905853,130.036819 
	C317.475891,108.551598 316.265991,86.863220 316.265991,65.066498 
	C307.750244,65.066498 298.846954,65.066498 289.523163,65.066498 
	C289.523163,66.938103 289.523163,68.576149 289.523193,70.214195 
	C289.523407,85.378227 289.592804,100.542770 289.478394,115.705940 
	C289.447113,119.852364 289.294556,124.084915 288.448364,128.120819 
	C286.397430,137.902451 280.181763,142.610626 270.342316,142.436172 
	C260.613403,142.263672 254.634644,137.188324 252.944260,127.321648 
	C252.329880,123.735558 252.065613,120.050819 252.043533,116.408653 
	C251.948608,100.745285 252.008835,85.081001 251.993683,69.417076 
	C251.992279,67.968399 251.857590,66.519852 251.787109,65.117355 
	C242.396057,65.117355 233.331909,65.117355 224.160126,65.117355 
	C224.160126,85.539192 223.674301,105.690231 224.323776,125.804611 
	C224.789200,140.218674 230.943924,152.134430 244.674927,159.944214 
M747.829346,71.576721 
	C742.381836,69.670059 737.053162,66.723938 731.460754,66.084328 
	C721.419861,64.935928 711.222595,65.061211 701.086670,64.865349 
	C692.492554,64.699280 683.892639,64.831100 675.312927,64.831100 
	C675.312927,72.467110 675.312927,79.517365 675.312927,86.844086 
	C689.304138,86.844086 702.942383,86.726891 716.576172,86.920288 
	C720.338379,86.973663 724.266479,87.425438 727.801697,88.626724 
	C733.548157,90.579391 736.419067,96.134872 735.874084,102.600258 
	C735.340759,108.926422 731.789124,113.547386 726.023071,114.918571 
	C723.465942,115.526672 720.769836,115.777237 718.134521,115.792313 
	C703.869385,115.873917 689.603455,115.831017 675.286011,115.831017 
	C675.286011,132.085281 675.286011,147.799118 675.286011,163.472839 
	C684.674805,163.472839 693.729126,163.472839 703.175598,163.472839 
	C703.175598,154.661697 703.175598,146.218628 703.175598,137.542160 
	C706.734619,137.542160 709.915039,137.782639 713.042969,137.480042 
	C716.778137,137.118652 719.142212,138.337631 721.185486,141.617188 
	C725.316345,148.247604 729.876038,154.616104 734.407532,160.986908 
	C735.262207,162.188400 736.787292,163.679062 738.036865,163.711044 
	C747.114014,163.943283 756.199890,163.835861 766.210999,163.835861 
	C758.811707,153.023010 751.922424,142.955353 745.003845,132.844986 
	C770.676697,119.857880 769.319153,83.961906 747.829346,71.576721 
M1021.773621,114.211983 
	C1035.552246,94.413307 1029.380493,72.763107 1007.460327,65.392044 
	C994.928284,61.177967 982.096680,61.712429 969.765564,66.474464 
	C961.307129,69.740974 954.187012,75.019104 949.712646,83.621452 
	C956.765076,87.517456 963.436584,91.203003 970.209961,94.944862 
	C974.361877,89.464615 979.493774,85.964516 986.194763,85.437042 
	C990.927429,85.064507 995.704956,85.392555 998.831726,89.674690 
	C1001.837952,93.791725 1001.121094,98.363220 998.910034,102.448891 
	C997.281372,105.458305 995.010437,108.267517 992.523987,110.640167 
	C980.955383,121.679253 969.185547,132.507294 957.570190,143.497940 
	C956.334473,144.667175 954.922485,146.356339 954.819153,147.887100 
	C954.474609,152.991776 954.688721,158.134155 954.688721,163.551300 
	C980.563416,163.551300 1005.944580,163.551300 1031.568115,163.551300 
	C1031.568115,156.182877 1031.568115,149.114609 1031.568115,141.369293 
	C1019.310791,141.369293 1007.297852,141.369293 996.543457,141.369293 
	C1004.627686,132.697708 1012.979919,123.738686 1021.773621,114.211983 
M1129.978760,122.379608 
	C1126.070557,122.379608 1122.162354,122.379608 1117.812256,122.379608 
	C1117.812256,116.445160 1117.812256,111.351219 1117.812256,106.224159 
	C1108.790894,106.224159 1100.244263,106.224159 1091.164795,106.224159 
	C1091.164795,111.678268 1091.164795,116.765808 1091.164795,122.058578 
	C1084.592041,122.058578 1078.562988,122.058578 1071.699829,122.058578 
	C1085.082886,102.858444 1098.051392,84.252899 1111.581055,64.842567 
	C1102.618652,64.842567 1094.680786,64.972198 1086.751099,64.775749 
	C1083.775391,64.702026 1081.932983,65.600792 1080.176392,68.077583 
	C1068.327148,84.785217 1056.882324,101.832108 1044.104248,117.807419 
	C1037.294189,126.321541 1037.967285,135.017532 1038.406128,144.923660 
	C1055.793579,144.923660 1072.870972,144.923660 1090.656372,144.923660 
	C1090.656372,151.506134 1090.656372,157.553711 1090.656372,163.499008 
	C1100.128296,163.499008 1108.875366,163.499008 1118.054932,163.499008 
	C1118.054932,157.209549 1118.054932,151.275925 1118.054932,144.822510 
	C1123.055298,144.822510 1127.632568,144.822510 1132.702148,144.822510 
	C1132.702148,137.675217 1132.755127,131.054337 1132.622070,124.437256 
	C1132.608521,123.759598 1131.481445,123.104317 1129.978760,122.379608 
M897.503540,64.834190 
	C895.337097,64.834190 893.124512,65.118927 891.013550,64.776657 
	C886.190491,63.994637 883.622620,66.081078 881.288391,70.251015 
	C875.040649,81.412231 868.248840,92.268829 861.403564,103.696556 
	C860.249207,101.990074 859.279114,100.689789 858.447998,99.306091 
	C852.193420,88.892860 846.005005,78.439545 839.680847,68.068878 
	C838.899597,66.787781 837.466248,65.033920 836.292725,65.000755 
	C827.249756,64.745102 818.196350,64.860046 808.424194,64.860046 
	C809.780518,67.265228 810.622803,68.842079 811.540710,70.373596 
	C821.292175,86.644379 830.859985,103.030357 840.918457,119.109352 
	C844.596619,124.989197 846.478516,130.810043 846.089355,137.782974 
	C845.611328,146.348312 845.975403,154.960648 845.975403,163.612244 
	C855.617798,163.612244 864.547363,163.612244 874.000977,163.612244 
	C874.000977,153.106384 873.856812,142.821228 874.099365,132.545181 
	C874.162292,129.879074 874.897156,126.926254 876.237061,124.640808 
	C886.840332,106.554962 897.666626,88.599907 908.417664,70.600685 
	C909.402893,68.951355 910.341064,67.273941 911.748352,64.834129 
	C906.707092,64.834129 902.600037,64.834129 897.503540,64.834190 
M97.284897,106.499878 
	C97.284897,125.445564 97.284897,144.391251 97.284897,163.537170 
	C122.657936,163.537170 147.523407,163.537170 172.545074,163.537170 
	C172.545074,156.145706 172.545074,149.068192 172.545074,141.363800 
	C156.760696,141.363800 141.204407,141.363800 125.189346,141.363800 
	C125.189346,115.517517 125.189346,90.296097 125.189346,65.202667 
	C115.651398,65.202667 106.595879,65.202667 97.284897,65.202667 
	C97.284897,78.890007 97.284897,92.194939 97.284897,106.499878 
M414.579926,99.066452 
	C398.963104,120.421745 383.346313,141.777039 367.210388,163.842209 
	C377.255951,163.842209 386.063568,163.679596 394.859650,163.927246 
	C398.095673,164.018341 399.967285,162.911011 401.796570,160.334381 
	C423.548523,129.695526 445.413727,99.137077 467.238159,68.549629 
	C467.950836,67.550819 468.545746,66.467979 469.564148,64.832352 
	C459.714569,64.832352 450.599792,64.727905 441.493134,64.952072 
	C440.219391,64.983429 438.662567,66.386971 437.783478,67.563736 
	C430.121246,77.820251 422.583649,88.169884 414.579926,99.066452 
M469.108521,159.377960 
	C462.443420,150.168884 455.778320,140.959808 448.923401,131.488449 
	C443.188324,138.834702 437.896820,145.612747 432.522400,152.496979 
	C434.681091,155.744995 436.602692,158.841278 438.760223,161.763351 
	C439.448090,162.694962 440.753693,163.739410 441.791534,163.755188 
	C451.658264,163.905151 461.528229,163.844604 472.065277,163.844604 
	C470.940430,162.101105 470.246979,161.026306 469.108521,159.377960 
M405.875092,77.232780 
	C407.080292,74.227859 402.274200,65.006432 399.075623,64.930740 
	C389.361847,64.700844 379.639130,64.847496 368.873047,64.847496 
	C376.507874,75.622780 383.503448,85.495865 390.750061,95.723228 
	C395.960632,89.347221 400.682556,83.569160 405.875092,77.232780 
z"/>
<path fill="#31343B" opacity="1.000000" stroke="none" 
	d="
M598.817261,156.858124 
	C579.760559,168.687286 560.350342,168.922745 541.123291,159.007263 
	C528.537476,152.516678 523.382629,140.615921 522.093628,126.946495 
	C521.797180,123.803070 521.835083,120.622002 521.830933,117.458115 
	C521.808044,100.147758 521.820068,82.837364 521.820068,65.178055 
	C531.094360,65.178055 540.158691,65.178055 549.859253,65.178055 
	C549.859253,66.902168 549.856934,68.672935 549.859619,70.443703 
	C549.884766,87.269211 549.854858,104.095177 549.989258,120.919815 
	C550.012939,123.884407 550.422241,126.923470 551.177734,129.789932 
	C553.340942,137.996704 559.246460,142.267532 568.127686,142.411591 
	C577.251953,142.559601 583.595764,138.384201 585.712708,130.021790 
	C586.800171,125.726028 587.072632,121.140480 587.119019,116.679703 
	C587.280029,101.188210 587.180786,85.694023 587.180603,70.200859 
	C587.180603,68.573036 587.180603,66.945206 587.180603,65.083809 
	C596.574036,65.083809 605.487000,65.083809 614.940491,65.083809 
	C614.940491,67.143738 614.963684,69.090660 614.936951,71.036888 
	C614.669617,90.511925 614.864990,110.009315 613.937927,129.453094 
	C613.412354,140.476440 608.149475,149.814987 598.817261,156.858124 
z"/>
<path fill="#101214" opacity="1.000000" stroke="none" 
	d="
M244.344635,159.778015 
	C230.943924,152.134430 224.789200,140.218674 224.323776,125.804611 
	C223.674301,105.690231 224.160126,85.539192 224.160126,65.117355 
	C233.331909,65.117355 242.396057,65.117355 251.787109,65.117355 
	C251.857590,66.519852 251.992279,67.968399 251.993683,69.417076 
	C252.008835,85.081001 251.948608,100.745285 252.043533,116.408653 
	C252.065613,120.050819 252.329880,123.735558 252.944260,127.321648 
	C254.634644,137.188324 260.613403,142.263672 270.342316,142.436172 
	C280.181763,142.610626 286.397430,137.902451 288.448364,128.120819 
	C289.294556,124.084915 289.447113,119.852364 289.478394,115.705940 
	C289.592804,100.542770 289.523407,85.378227 289.523193,70.214195 
	C289.523163,68.576149 289.523163,66.938103 289.523163,65.066498 
	C298.846954,65.066498 307.750244,65.066498 316.265991,65.066498 
	C316.265991,86.863220 317.475891,108.551598 315.905853,130.036819 
	C314.500214,149.272339 301.966797,160.985107 282.615723,164.604736 
	C269.604462,167.038498 256.748718,166.152420 244.344635,159.778015 
z"/>
<path fill="#40444D" opacity="1.000000" stroke="none" 
	d="
M748.137573,71.771988 
	C769.319153,83.961906 770.676697,119.857880 745.003845,132.844986 
	C751.922424,142.955353 758.811707,153.023010 766.210999,163.835861 
	C756.199890,163.835861 747.114014,163.943283 738.036865,163.711044 
	C736.787292,163.679062 735.262207,162.188400 734.407532,160.986908 
	C729.876038,154.616104 725.316345,148.247604 721.185486,141.617188 
	C719.142212,138.337631 716.778137,137.118652 713.042969,137.480042 
	C709.915039,137.782639 706.734619,137.542160 703.175598,137.542160 
	C703.175598,146.218628 703.175598,154.661697 703.175598,163.472839 
	C693.729126,163.472839 684.674805,163.472839 675.286011,163.472839 
	C675.286011,147.799118 675.286011,132.085281 675.286011,115.831017 
	C689.603455,115.831017 703.869385,115.873917 718.134521,115.792313 
	C720.769836,115.777237 723.465942,115.526672 726.023071,114.918571 
	C731.789124,113.547386 735.340759,108.926422 735.874084,102.600258 
	C736.419067,96.134872 733.548157,90.579391 727.801697,88.626724 
	C724.266479,87.425438 720.338379,86.973663 716.576172,86.920288 
	C702.942383,86.726891 689.304138,86.844086 675.312927,86.844086 
	C675.312927,79.517365 675.312927,72.467110 675.312927,64.831100 
	C683.892639,64.831100 692.492554,64.699280 701.086670,64.865349 
	C711.222595,65.061211 721.419861,64.935928 731.460754,66.084328 
	C737.053162,66.723938 742.381836,69.670059 748.137573,71.771988 
z"/>
<path fill="#5F6573" opacity="1.000000" stroke="none" 
	d="
M1021.552856,114.495819 
	C1012.979919,123.738686 1004.627686,132.697708 996.543457,141.369293 
	C1007.297852,141.369293 1019.310791,141.369293 1031.568115,141.369293 
	C1031.568115,149.114609 1031.568115,156.182877 1031.568115,163.551300 
	C1005.944580,163.551300 980.563416,163.551300 954.688721,163.551300 
	C954.688721,158.134155 954.474609,152.991776 954.819153,147.887100 
	C954.922485,146.356339 956.334473,144.667175 957.570190,143.497940 
	C969.185547,132.507294 980.955383,121.679253 992.523987,110.640167 
	C995.010437,108.267517 997.281372,105.458305 998.910034,102.448891 
	C1001.121094,98.363220 1001.837952,93.791725 998.831726,89.674690 
	C995.704956,85.392555 990.927429,85.064507 986.194763,85.437042 
	C979.493774,85.964516 974.361877,89.464615 970.209961,94.944862 
	C963.436584,91.203003 956.765076,87.517456 949.712646,83.621452 
	C954.187012,75.019104 961.307129,69.740974 969.765564,66.474464 
	C982.096680,61.712429 994.928284,61.177967 1007.460327,65.392044 
	C1029.380493,72.763107 1035.552246,94.413307 1021.552856,114.495819 
z"/>
<path fill="#6F7686" opacity="1.000000" stroke="none" 
	d="
M1130.425049,122.409134 
	C1131.481445,123.104317 1132.608521,123.759598 1132.622070,124.437256 
	C1132.755127,131.054337 1132.702148,137.675217 1132.702148,144.822510 
	C1127.632568,144.822510 1123.055298,144.822510 1118.054932,144.822510 
	C1118.054932,151.275925 1118.054932,157.209549 1118.054932,163.499008 
	C1108.875366,163.499008 1100.128296,163.499008 1090.656372,163.499008 
	C1090.656372,157.553711 1090.656372,151.506134 1090.656372,144.923660 
	C1072.870972,144.923660 1055.793579,144.923660 1038.406128,144.923660 
	C1037.967285,135.017532 1037.294189,126.321541 1044.104248,117.807419 
	C1056.882324,101.832108 1068.327148,84.785217 1080.176392,68.077583 
	C1081.932983,65.600792 1083.775391,64.702026 1086.751099,64.775749 
	C1094.680786,64.972198 1102.618652,64.842567 1111.581055,64.842567 
	C1098.051392,84.252899 1085.082886,102.858444 1071.699829,122.058578 
	C1078.562988,122.058578 1084.592041,122.058578 1091.164795,122.058578 
	C1091.164795,116.765808 1091.164795,111.678268 1091.164795,106.224159 
	C1100.244263,106.224159 1108.790894,106.224159 1117.812256,106.224159 
	C1117.812256,111.351219 1117.812256,116.445160 1117.812256,122.379608 
	C1122.162354,122.379608 1126.070557,122.379608 1130.425049,122.409134 
z"/>
<path fill="#4E545F" opacity="1.000000" stroke="none" 
	d="
M897.998291,64.834160 
	C902.600037,64.834129 906.707092,64.834129 911.748352,64.834129 
	C910.341064,67.273941 909.402893,68.951355 908.417664,70.600685 
	C897.666626,88.599907 886.840332,106.554962 876.237061,124.640808 
	C874.897156,126.926254 874.162292,129.879074 874.099365,132.545181 
	C873.856812,142.821228 874.000977,153.106384 874.000977,163.612244 
	C864.547363,163.612244 855.617798,163.612244 845.975403,163.612244 
	C845.975403,154.960648 845.611328,146.348312 846.089355,137.782974 
	C846.478516,130.810043 844.596619,124.989197 840.918457,119.109352 
	C830.859985,103.030357 821.292175,86.644379 811.540710,70.373596 
	C810.622803,68.842079 809.780518,67.265228 808.424194,64.860046 
	C818.196350,64.860046 827.249756,64.745102 836.292725,65.000755 
	C837.466248,65.033920 838.899597,66.787781 839.680847,68.068878 
	C846.005005,78.439545 852.193420,88.892860 858.447998,99.306091 
	C859.279114,100.689789 860.249207,101.990074 861.403564,103.696556 
	C868.248840,92.268829 875.040649,81.412231 881.288391,70.251015 
	C883.622620,66.081078 886.190491,63.994637 891.013550,64.776657 
	C893.124512,65.118927 895.337097,64.834190 897.998291,64.834160 
z"/>
<path fill="#060606" opacity="1.000000" stroke="none" 
	d="
M97.284897,105.999870 
	C97.284897,92.194939 97.284897,78.890007 97.284897,65.202667 
	C106.595879,65.202667 115.651398,65.202667 125.189346,65.202667 
	C125.189346,90.296097 125.189346,115.517517 125.189346,141.363800 
	C141.204407,141.363800 156.760696,141.363800 172.545074,141.363800 
	C172.545074,149.068192 172.545074,156.145706 172.545074,163.537170 
	C147.523407,163.537170 122.657936,163.537170 97.284897,163.537170 
	C97.284897,144.391251 97.284897,125.445564 97.284897,105.999870 
z"/>
<path fill="#212328" opacity="1.000000" stroke="none" 
	d="
M414.794464,98.779160 
	C422.583649,88.169884 430.121246,77.820251 437.783478,67.563736 
	C438.662567,66.386971 440.219391,64.983429 441.493134,64.952072 
	C450.599792,64.727905 459.714569,64.832352 469.564148,64.832352 
	C468.545746,66.467979 467.950836,67.550819 467.238159,68.549629 
	C445.413727,99.137077 423.548523,129.695526 401.796570,160.334381 
	C399.967285,162.911011 398.095673,164.018341 394.859650,163.927246 
	C386.063568,163.679596 377.255951,163.842209 367.210388,163.842209 
	C383.346313,141.777039 398.963104,120.421745 414.794464,98.779160 
z"/>
<path fill="#24262B" opacity="1.000000" stroke="none" 
	d="
M469.331055,159.664734 
	C470.246979,161.026306 470.940430,162.101105 472.065277,163.844604 
	C461.528229,163.844604 451.658264,163.905151 441.791534,163.755188 
	C440.753693,163.739410 439.448090,162.694962 438.760223,161.763351 
	C436.602692,158.841278 434.681091,155.744995 432.522400,152.496979 
	C437.896820,145.612747 443.188324,138.834702 448.923401,131.488449 
	C455.778320,140.959808 462.443420,150.168884 469.331055,159.664734 
z"/>
<path fill="#222429" opacity="1.000000" stroke="none" 
	d="
M405.639771,77.511940 
	C400.682556,83.569160 395.960632,89.347221 390.750061,95.723228 
	C383.503448,85.495865 376.507874,75.622780 368.873047,64.847496 
	C379.639130,64.847496 389.361847,64.700844 399.075623,64.930740 
	C402.274200,65.006432 407.080292,74.227859 405.639771,77.511940 
z"/>
</svg>