<svg xmlns:dc="http://purl.org/dc/elements/1.1/" xmlns:cc="http://creativecommons.org/ns#" xmlns:rdf="http://www.w3.org/1999/02/22-rdf-syntax-ns#" xmlns:svg="http://www.w3.org/2000/svg" xmlns="http://www.w3.org/2000/svg" xmlns:xlink="http://www.w3.org/1999/xlink" id="svg247241" viewBox="0 0 1024 768" height="768px" width="1024px" version="1.1">
    <metadata id="metadata247247">
        <rdf:rdf>
            <cc:work rdf:about="">
                <dc:format>image/svg+xml</dc:format>
                <dc:type rdf:resource="http://purl.org/dc/dcmitype/StillImage"></dc:type>
            </cc:work>
        </rdf:rdf>
    </metadata>
    <defs id="defs247245"></defs>
    <linearGradient spreadMethod="pad" y2="30%" x2="-10%" y1="120%" x1="30%" id="3d_gradient2-logo-e4a86cc7-67a0-40a8-9b1b-853469ca6108">
        <stop id="stop247222" stop-opacity="1" stop-color="#ffffff" offset="0%"></stop>
        <stop id="stop247224" stop-opacity="1" stop-color="#000000" offset="100%"></stop>
    </linearGradient>
    <linearGradient gradientTransform="rotate(-30)" spreadMethod="pad" y2="30%" x2="-10%" y1="120%" x1="30%" id="3d_gradient3-logo-e4a86cc7-67a0-40a8-9b1b-853469ca6108">
        <stop id="stop247227" stop-opacity="1" stop-color="#ffffff" offset="0%"></stop>
        <stop id="stop247229" stop-opacity="1" stop-color="#cccccc" offset="50%"></stop>
        <stop id="stop247231" stop-opacity="1" stop-color="#000000" offset="100%"></stop>
    </linearGradient>
    <g id="logo-group">
        <image xlink:href="" id="container" x="272" y="144" width="480" height="480" style="display: none;" transform="translate(0 0)"></image>
        <g id="logo-center" transform="translate(0 0)">
            <image xlink:href="" id="icon_container" style="display: none;" x="0" y="0"></image>
            <g id="slogan" style="font-style:normal;font-weight:800;font-size:32px;line-height:1;font-family:'Montserrat ExtraBold Alt1';font-variant-ligatures:none;text-align:center;text-anchor:middle" transform="translate(0 0)"></g>
            <g id="title" style="font-style:normal;font-weight:800;font-size:72px;line-height:1;font-family:'Montserrat ExtraBold Alt1';font-variant-ligatures:none;text-align:center;text-anchor:middle" transform="translate(0 0)">
                <path id="path247250" style="font-style:normal;font-weight:800;font-size:72px;line-height:1;font-family:'Montserrat ExtraBold Alt1';font-variant-ligatures:none;text-align:center;text-anchor:middle" d="m 243.233,-15.84 c 3.096,-1.512 5.544,-3.6 7.272,-6.336 1.728,-2.736 2.592,-5.904 2.592,-9.576 0,-3.744 -0.936,-7.056 -2.736,-9.864 -1.872,-2.808 -4.464,-4.968 -7.776,-6.48 -3.384,-1.512 -7.344,-2.304 -11.88,-2.304 h -23.04 v 11.232 h 22.176 c 2.88,0 5.112,0.648 6.624,1.944 1.44,1.296 2.232,3.168 2.232,5.472 0,2.376 -0.792,4.176 -2.232,5.472 -1.512,1.296 -3.744,1.872 -6.624,1.872 H 207.665 V 0 h 14.256 v -13.392 h 7.776 L 238.841,0 h 15.264 z" stroke-width="0" stroke-linejoin="miter" stroke-miterlimit="2" fill="#000000" stroke="#000000" transform="translate(0 307.79200000000003) translate(204.64662500000009 51.008) scale(1) translate(-207.665 50.4)"></path>
                <path id="path247252" style="font-style:normal;font-weight:800;font-size:72px;line-height:1;font-family:'Montserrat ExtraBold Alt1';font-variant-ligatures:none;text-align:center;text-anchor:middle" d="m 271.97787,-2.376 c 4.248,2.304 9.072,3.384 14.40001,3.384 5.32799,0 10.07999,-1.08 14.32799,-3.384 4.248,-2.232 7.56,-5.328 10.00801,-9.36 2.44799,-3.96 3.67199,-8.424 3.67199,-13.464 0,-4.968 -1.224,-9.432 -3.67199,-13.464 -2.44801,-3.96 -5.76001,-7.056 -10.00801,-9.36 -4.248,-2.232 -9,-3.384 -14.32799,-3.384 -5.32801,0 -10.15201,1.152 -14.40001,3.384 -4.248,2.304 -7.56,5.4 -10.008,9.36 -2.44799,4.032 -3.6,8.496 -3.6,13.464 0,5.04 1.15201,9.504 3.6,13.464 2.448,4.032 5.76,7.128 10.008,9.36 z m 21.312,-10.224 c -2.088,1.224 -4.392,1.8 -6.91199,1.8 -2.59201,0 -4.89601,-0.576 -6.91201,-1.8 -2.08799,-1.152 -3.744,-2.88 -4.89599,-5.04 -1.22401,-2.16 -1.8,-4.68 -1.8,-7.56 0,-2.808 0.57599,-5.328 1.8,-7.488 1.15199,-2.16 2.808,-3.888 4.89599,-5.112 2.016,-1.152 4.32,-1.8 6.91201,-1.8 2.51999,0 4.82399,0.648 6.91199,1.8 2.01601,1.224 3.67201,2.952 4.896,5.112 1.152,2.16 1.80001,4.68 1.80001,7.488 0,2.88 -0.64801,5.4 -1.80001,7.56 -1.22399,2.16 -2.87999,3.888 -4.896,5.04 z" stroke-width="0" stroke-linejoin="miter" stroke-miterlimit="2" fill="#080808" stroke="#080808" transform="translate(0 307.79200000000003) translate(255.35149500000009 50) scale(1) translate(-258.36987 51.408)"></path>
                <path id="path247254" style="font-style:normal;font-weight:800;font-size:72px;line-height:1;font-family:'Montserrat ExtraBold Alt1';font-variant-ligatures:none;text-align:center;text-anchor:middle" d="m 346.74313,-18.072 19.296,-32.328 h -13.82401 l -11.952,20.016 -11.952,-20.016 h -15.048 l 19.224,32.112 V 0 h 14.25601 z" stroke-width="0" stroke-linejoin="miter" stroke-miterlimit="2" fill="#111011" stroke="#111011" transform="translate(0 307.79200000000003) translate(310.2447450000001 51.008) scale(1) translate(-313.26312 50.4)"></path>
                <path id="path247256" style="font-style:normal;font-weight:800;font-size:72px;line-height:1;font-family:'Montserrat ExtraBold Alt1';font-variant-ligatures:none;text-align:center;text-anchor:middle" d="m 396.59862,-50.4 h -14.04 L 360.31063,0 h 14.54399 l 3.96,-9.792 4.17601,-10.512 6.47999,-16.128 6.48,16.128 4.176,10.512 3.96001,9.792 h 14.832 z" stroke-width="0" stroke-linejoin="miter" stroke-miterlimit="2" fill="#191919" stroke="#191919" transform="translate(0 307.79200000000003) translate(357.29225500000007 51.008) scale(1) translate(-360.31063 50.4)"></path>
                <path id="path247258" style="font-style:normal;font-weight:800;font-size:72px;line-height:1;font-family:'Montserrat ExtraBold Alt1';font-variant-ligatures:none;text-align:center;text-anchor:middle" d="M 422.96188,-50.4 V 0 h 38.30399 v -11.304 h -24.048 V -50.4 Z" stroke-width="0" stroke-linejoin="miter" stroke-miterlimit="2" fill="#212121" stroke="#212121" transform="translate(0 307.79200000000003) translate(419.9435050000001 51.008) scale(1) translate(-422.96188 50.4)"></path>
                <path id="path247260" style="font-style:normal;font-weight:800;font-size:72px;line-height:1;font-family:'Montserrat ExtraBold Alt1';font-variant-ligatures:none;text-align:center;text-anchor:middle" d="m 465.67475,-25.776 v 10.512 h 21.024 v -10.512 z" stroke-width="0" stroke-linejoin="miter" stroke-miterlimit="2" fill="#2a292a" stroke="#2a292a" transform="translate(0 307.79200000000003) translate(462.6563750000001 75.632) scale(1) translate(-465.67475 25.776)"></path>
                <path id="path247262" style="font-style:normal;font-weight:800;font-size:72px;line-height:1;font-family:'Montserrat ExtraBold Alt1';font-variant-ligatures:none;text-align:center;text-anchor:middle" d="m 530.81112,-15.84 c 3.096,-1.512 5.54401,-3.6 7.272,-6.336 1.728,-2.736 2.592,-5.904 2.592,-9.576 0,-3.744 -0.93599,-7.056 -2.736,-9.864 -1.87199,-2.808 -4.46399,-4.968 -7.77599,-6.48 -3.384,-1.512 -7.34401,-2.304 -11.88,-2.304 h -23.04 v 11.232 h 22.17599 c 2.88,0 5.112,0.648 6.62401,1.944 1.43999,1.296 2.23199,3.168 2.23199,5.472 0,2.376 -0.792,4.176 -2.23199,5.472 -1.51201,1.296 -3.74401,1.872 -6.62401,1.872 H 495.24313 V 0 h 14.25599 v -13.392 h 7.776 L 526.41912,0 h 15.26401 z" stroke-width="0" stroke-linejoin="miter" stroke-miterlimit="2" fill="#323232" stroke="#323232" transform="translate(0 307.79200000000003) translate(492.2247550000001 51.008) scale(1) translate(-495.24313 50.4)"></path>
                <path id="path247264" style="font-style:normal;font-weight:800;font-size:72px;line-height:1;font-family:'Montserrat ExtraBold Alt1';font-variant-ligatures:none;text-align:center;text-anchor:middle" d="m 588.5,-50.4 h -39.96 v 11.016 h 39.96 z m 0,19.512 h -39.96 v 10.656 h 39.96 z m -39.96,19.872 V 0 h 39.96 v -11.016 z" stroke-width="0" stroke-linejoin="miter" stroke-miterlimit="2" fill="#3a3a3a" stroke="#3a3a3a" transform="translate(0 307.79200000000003) translate(545.521625 51.008) scale(1) translate(-548.54 50.4)"></path>
                <path id="path247266" style="font-style:normal;font-weight:800;font-size:72px;line-height:1;font-family:'Montserrat ExtraBold Alt1';font-variant-ligatures:none;text-align:center;text-anchor:middle" d="m 639.611,-41.616 c -1.872,-2.808 -4.464,-4.968 -7.776,-6.48 -3.384,-1.512 -7.344,-2.304 -11.88,-2.304 h -23.04 v 11.232 h 22.176 c 2.88,0 5.112,0.648 6.624,1.944 1.44,1.296 2.232,3.168 2.232,5.472 0,2.376 -0.792,4.176 -2.232,5.472 -1.512,1.296 -3.744,1.872 -6.624,1.872 H 596.915 V 0 h 14.256 v -13.176 h 8.784 c 4.536,0 8.496,-0.72 11.88,-2.232 3.312,-1.512 5.904,-3.672 7.776,-6.48 1.8,-2.736 2.736,-6.048 2.736,-9.864 0,-3.744 -0.936,-7.056 -2.736,-9.864 z" stroke-width="0" stroke-linejoin="miter" stroke-miterlimit="2" fill="#434243" stroke="#434243" transform="translate(0 307.79200000000003) translate(593.896625 51.008) scale(1) translate(-596.915 50.4)"></path>
                <path id="path247268" style="font-style:normal;font-weight:800;font-size:72px;line-height:1;font-family:'Montserrat ExtraBold Alt1';font-variant-ligatures:none;text-align:center;text-anchor:middle" d="M 649.2275,-50.4 V 0 h 38.304 v -11.304 h -24.048 V -50.4 Z" stroke-width="0" stroke-linejoin="miter" stroke-miterlimit="2" fill="#4b4a4b" stroke="#4b4a4b" transform="translate(0 307.79200000000003) translate(646.209125 51.008) scale(1) translate(-649.2275 50.4)"></path>
                <path id="path247270" style="font-style:normal;font-weight:800;font-size:72px;line-height:1;font-family:'Montserrat ExtraBold Alt1';font-variant-ligatures:none;text-align:center;text-anchor:middle" d="M 693.1025,-50.4 V 0 h 14.256 v -50.4 z" stroke-width="0" stroke-linejoin="miter" stroke-miterlimit="2" fill="#535353" stroke="#535353" transform="translate(0 307.79200000000003) translate(690.084125 51.008) scale(1) translate(-693.1025 50.4)"></path>
                <path id="path247272" style="font-style:normal;font-weight:800;font-size:72px;line-height:1;font-family:'Montserrat ExtraBold Alt1';font-variant-ligatures:none;text-align:center;text-anchor:middle" d="m 728.44325,-2.304 c 4.176,2.232 8.928,3.312 14.256,3.312 4.608,0 8.712,-0.792 12.456,-2.448 3.672,-1.584 6.768,-3.96 9.216,-7.056 l -9.072,-8.208 c -3.312,3.96 -7.272,5.904 -11.88,5.904 -2.736,0 -5.184,-0.576 -7.344,-1.8 -2.16,-1.152 -3.816,-2.88 -4.968,-5.04 -1.152,-2.16 -1.728,-4.68 -1.728,-7.56 0,-2.808 0.576,-5.328 1.728,-7.488 1.152,-2.16 2.808,-3.888 4.968,-5.112 2.16,-1.152 4.608,-1.8 7.344,-1.8 4.608,0 8.568,2.016 11.88,5.904 l 9.072,-8.208 c -2.448,-3.024 -5.544,-5.4 -9.216,-7.056 -3.744,-1.584 -7.848,-2.448 -12.456,-2.448 -5.328,0 -10.08,1.152 -14.256,3.384 -4.176,2.232 -7.488,5.328 -9.864,9.288 -2.448,4.032 -3.6,8.496 -3.6,13.536 0,5.04 1.152,9.576 3.6,13.536 2.376,4.032 5.688,7.128 9.864,9.36 z" stroke-width="0" stroke-linejoin="miter" stroke-miterlimit="2" fill="#5c5b5c" stroke="#5c5b5c" transform="translate(0 307.79200000000003) translate(711.960875 50) scale(1) translate(-714.97925 51.408)"></path>
                <path id="path247274" style="font-style:normal;font-weight:800;font-size:72px;line-height:1;font-family:'Montserrat ExtraBold Alt1';font-variant-ligatures:none;text-align:center;text-anchor:middle" d="m 800.05175,-50.4 h -14.04 L 763.76375,0 h 14.544 l 3.96,-9.792 4.176,-10.512 6.48,-16.128 6.48,16.128 4.176,10.512 3.96,9.792 h 14.832 z" stroke-width="0" stroke-linejoin="miter" stroke-miterlimit="2" fill="#646364" stroke="#646364" transform="translate(0 307.79200000000003) translate(760.745375 51.008) scale(1) translate(-763.76375 50.4)"></path>
            </g>
            <image xlink:href="" id="icon" style="display: none;" x="0" y="0"></image>
        </g>
    </g>
</svg>